<svg xmlns="http://www.w3.org/2000/svg" width="1378" height="820" fill="none"><g clip-path="url(#a)"><path fill="#EBECEC" d="M0 0h1378v820H0z"/><mask id="c" fill="#fff"><path d="M0 0h1378v60H0V0z"/></mask><path fill="#fff" d="M0 0h1378v60H0V0z"/><path fill="#888" fill-rule="evenodd" d="M88 21a4 4 0 0 0-4 4v10a4 4 0 0 0 4 4h10a4 4 0 0 0 4-4V25a4 4 0 0 0-4-4H88zm4 4h2v4h4v2h-4v4h-2v-4h-4v-2h4v-4z" clip-rule="evenodd"/><path fill="#888" d="M173 21h-4a4 4 0 0 0-4 4v10a4 4 0 0 0 4 4h4V21zm2 18h4a4 4 0 0 0 4-4v-4h-8v8zm8-10h-8v-8h4a4 4 0 0 1 4 4v4zm-70.724-3.727V34h-1.317v-8.727h1.317zm3.089 4.84V34h-1.274v-6.546h1.223v1.066h.081c.15-.347.386-.625.707-.835.324-.21.732-.316 1.223-.316.446 0 .837.094 1.172.282.335.184.595.46.78.826.185.367.277.82.277 1.36V34h-1.274v-4.01c0-.474-.124-.845-.371-1.112-.247-.27-.587-.405-1.018-.405-.296 0-.559.064-.789.192a1.383 1.383 0 0 0-.541.562c-.131.245-.196.54-.196.887zm10.803-1.06-1.155.204a1.385 1.385 0 0 0-.23-.422 1.147 1.147 0 0 0-.418-.328 1.51 1.51 0 0 0-.66-.128c-.361 0-.662.081-.904.243-.241.16-.362.365-.362.618 0 .219.081.395.243.529.162.133.423.242.784.328l1.04.238c.602.14 1.051.354 1.346.644.296.29.443.666.443 1.129 0 .392-.113.741-.34 1.048-.225.304-.539.543-.942.716-.401.173-.865.26-1.394.26-.733 0-1.331-.156-1.794-.469-.463-.315-.747-.762-.852-1.342l1.232-.188c.076.322.234.564.473.73.238.161.549.242.933.242.417 0 .751-.086 1.001-.26.25-.176.375-.39.375-.643a.667.667 0 0 0-.23-.516c-.15-.14-.382-.244-.695-.315l-1.107-.243c-.611-.14-1.063-.361-1.356-.665-.289-.304-.434-.689-.434-1.155 0-.386.108-.724.324-1.014a2.12 2.12 0 0 1 .895-.678 3.26 3.26 0 0 1 1.308-.247c.707 0 1.264.154 1.67.46.406.305.675.712.806 1.224zm4.349 5.08c-.644 0-1.2-.139-1.666-.414a2.806 2.806 0 0 1-1.074-1.172c-.25-.506-.375-1.098-.375-1.777 0-.67.125-1.261.375-1.773.253-.511.605-.91 1.057-1.197.455-.287.986-.43 1.594-.43.369 0 .727.06 1.074.183.346.122.657.313.933.575.276.261.493.6.652 1.018.159.415.239.92.239 1.513v.452h-5.203v-.955h3.954c0-.335-.068-.632-.204-.89a1.554 1.554 0 0 0-.576-.618 1.607 1.607 0 0 0-.861-.226c-.358 0-.67.088-.937.264a1.77 1.77 0 0 0-.614.682 1.969 1.969 0 0 0-.213.908v.745c0 .438.077.81.23 1.117.157.307.374.541.652.703.279.159.604.239.976.239.242 0 .462-.035.661-.103a1.373 1.373 0 0 0 .848-.831l1.206.218c-.097.355-.27.666-.52.933-.247.264-.558.47-.933.618a3.498 3.498 0 0 1-1.275.217zm4.222-.133v-6.546h1.232v1.04h.068c.119-.352.33-.629.631-.83a1.803 1.803 0 0 1 1.031-.308 5.412 5.412 0 0 1 .541.03v1.22a2.285 2.285 0 0 0-.273-.048c-.13-.02-.261-.03-.392-.03a1.66 1.66 0 0 0-.805.192 1.422 1.422 0 0 0-.759 1.283V34h-1.274zm8.048-6.546v1.023h-3.575v-1.023h3.575zm-2.617-1.568h1.275v6.192c0 .247.037.433.11.558a.578.578 0 0 0 .286.252c.119.042.248.064.388.064.102 0 .191-.007.268-.022a6.69 6.69 0 0 0 .179-.034l.23 1.053a2.494 2.494 0 0 1-.826.136 2.244 2.244 0 0 1-.938-.179 1.606 1.606 0 0 1-.703-.58c-.179-.26-.269-.589-.269-.984v-6.456zM191.959 34v-8.727h1.317v7.594h3.954V34h-5.271zm8.576.145c-.415 0-.79-.077-1.125-.23a1.897 1.897 0 0 1-.797-.678c-.193-.295-.29-.657-.29-1.086 0-.37.071-.674.213-.912a1.57 1.57 0 0 1 .576-.567 3 3 0 0 1 .809-.316c.298-.07.602-.125.912-.161l.955-.111c.244-.031.422-.081.532-.15.111-.068.167-.178.167-.332v-.03c0-.372-.106-.66-.316-.865-.207-.204-.517-.306-.929-.306-.429 0-.767.095-1.014.285a1.532 1.532 0 0 0-.507.627l-1.198-.273c.142-.398.35-.719.623-.963a2.51 2.51 0 0 1 .95-.537c.358-.114.734-.17 1.129-.17.262 0 .538.03.831.093.296.06.571.17.827.332.258.162.47.394.635.695.165.298.247.686.247 1.163V34h-1.244v-.895h-.052a1.817 1.817 0 0 1-.37.486 1.977 1.977 0 0 1-.635.396 2.464 2.464 0 0 1-.929.158zm.277-1.023c.352 0 .653-.07.903-.209a1.45 1.45 0 0 0 .776-1.274v-.843a.673.673 0 0 1-.264.127c-.128.037-.275.07-.439.098l-.482.073-.392.05a3.143 3.143 0 0 0-.677.159 1.16 1.16 0 0 0-.486.32c-.12.136-.179.317-.179.545 0 .315.116.554.349.715.233.16.53.24.891.24zm5.221 3.333a2.664 2.664 0 0 1-.869-.141l.307-1.044c.232.062.44.09.622.08a.743.743 0 0 0 .481-.204c.142-.127.267-.336.375-.626l.158-.435-2.395-6.63h1.364l1.657 5.08h.068l1.658-5.08h1.368l-2.697 7.419c-.125.34-.284.629-.478.865a1.85 1.85 0 0 1-.69.537 2.26 2.26 0 0 1-.929.178zm8.526-2.323c-.614 0-1.149-.14-1.607-.422a2.847 2.847 0 0 1-1.065-1.18c-.253-.506-.379-1.097-.379-1.773 0-.679.126-1.273.379-1.781a2.841 2.841 0 0 1 1.065-1.185c.458-.281.993-.422 1.607-.422s1.149.14 1.606.422c.458.281.813.676 1.066 1.185.253.508.379 1.102.379 1.781 0 .676-.126 1.267-.379 1.773a2.845 2.845 0 0 1-1.066 1.18c-.457.282-.992.422-1.606.422zm.004-1.07c.398 0 .727-.105.989-.315.261-.21.454-.49.579-.84a3.33 3.33 0 0 0 .192-1.154c0-.418-.064-.801-.192-1.15a1.876 1.876 0 0 0-.579-.849c-.262-.213-.591-.32-.989-.32-.4 0-.733.107-.997.32a1.908 1.908 0 0 0-.584.848c-.125.35-.187.733-.187 1.15 0 .421.062.806.187 1.156.128.35.323.629.584.84.264.21.597.315.997.315zm8.616-1.776v-3.832h1.278V34h-1.253v-1.133h-.068c-.151.349-.392.64-.724.873-.33.23-.74.345-1.232.345a2.21 2.21 0 0 1-1.116-.277 1.95 1.95 0 0 1-.759-.83c-.182-.367-.273-.82-.273-1.36v-4.163h1.274v4.01c0 .445.124.8.371 1.065.247.264.568.396.963.396.239 0 .476-.06.712-.179.239-.12.436-.3.592-.541.159-.242.237-.548.235-.92zm6.045-3.832v1.023h-3.575v-1.023h3.575zm-2.616-1.568h1.274v6.192c0 .247.037.433.111.558a.58.58 0 0 0 .285.252c.12.042.249.064.388.064.102 0 .192-.007.269-.022l.179-.034.23 1.053a2.138 2.138 0 0 1-.316.085 2.486 2.486 0 0 1-.511.051 2.24 2.24 0 0 1-.937-.179 1.609 1.609 0 0 1-.704-.58c-.179-.26-.268-.589-.268-.984v-6.456zm50.92.52v-1.133h6.755v1.133h-2.723V34h-1.313v-7.594h-2.719zm10.017 7.726c-.645 0-1.201-.138-1.666-.413a2.8 2.8 0 0 1-1.074-1.172c-.25-.506-.375-1.098-.375-1.777 0-.67.125-1.261.375-1.773.253-.511.605-.91 1.057-1.197.454-.287.985-.43 1.593-.43.37 0 .728.06 1.074.183.347.122.658.313.933.575.276.261.493.6.652 1.018.159.415.239.92.239 1.513v.452h-5.203v-.955h3.954c0-.335-.068-.632-.204-.89a1.552 1.552 0 0 0-.575-.618 1.612 1.612 0 0 0-.861-.226c-.358 0-.671.088-.938.264-.264.173-.468.4-.613.682a1.969 1.969 0 0 0-.213.908v.745c0 .438.076.81.23 1.117.156.307.373.541.652.703.278.159.603.239.976.239.241 0 .461-.035.66-.103a1.37 1.37 0 0 0 .848-.831l1.206.218c-.097.355-.27.666-.52.933-.247.264-.558.47-.933.618a3.492 3.492 0 0 1-1.274.217zm5.075-6.677 1.445 2.548 1.457-2.549h1.393l-2.041 3.273L296.933 34h-1.394l-1.474-2.446L292.594 34h-1.397l2.037-3.273-2.012-3.273h1.398zm8.659 0v1.022h-3.575v-1.023h3.575zm-2.616-1.569h1.274v6.192c0 .247.037.433.111.558a.576.576 0 0 0 .285.252c.119.042.249.064.388.064.102 0 .192-.007.268-.022a6.69 6.69 0 0 0 .179-.034l.23 1.053a2.494 2.494 0 0 1-.826.136 2.247 2.247 0 0 1-.938-.179 1.606 1.606 0 0 1-.703-.58c-.179-.26-.268-.589-.268-.984v-6.456zm59.544 2.224h-1.329a2.017 2.017 0 0 0-.797-1.299 2.208 2.208 0 0 0-.678-.34 2.644 2.644 0 0 0-.788-.116c-.503 0-.953.127-1.351.38-.395.252-.707.623-.937 1.112-.228.488-.341 1.085-.341 1.79 0 .71.113 1.309.341 1.798.23.488.544.858.941 1.108.398.25.846.375 1.343.375.275 0 .537-.037.784-.111.25-.077.476-.19.677-.337a2.041 2.041 0 0 0 .806-1.283l1.329.005a3.55 3.55 0 0 1-.413 1.184 3.278 3.278 0 0 1-.78.93 3.523 3.523 0 0 1-1.082.6c-.406.142-.85.213-1.33.213-.755 0-1.429-.179-2.02-.537-.591-.36-1.056-.876-1.397-1.547-.338-.67-.507-1.47-.507-2.399 0-.931.17-1.731.511-2.399.341-.67.807-1.184 1.398-1.542.591-.361 1.262-.542 2.015-.542.463 0 .895.067 1.296.2.403.131.765.325 1.086.58.321.253.587.563.797.93.21.363.353.779.426 1.248zm1.576-2.837h1.598l2.778 6.784h.103l2.778-6.784h1.598V34h-1.253v-6.315h-.081l-2.574 6.302h-1.039l-2.574-6.307h-.081V34h-1.253v-8.727zm15.529 2.292a1.242 1.242 0 0 0-.562-.937c-.33-.225-.744-.337-1.244-.337-.358 0-.668.057-.929.17a1.43 1.43 0 0 0-.61.46 1.087 1.087 0 0 0-.213.661c0 .208.049.387.145.537.1.15.229.277.388.38.162.099.335.183.52.251.184.065.362.12.532.162l.853.222c.278.068.564.16.856.276.293.117.564.27.814.46.25.191.452.427.605.708.157.281.235.618.235 1.01 0 .494-.128.933-.384 1.317-.253.383-.621.686-1.104.907-.48.222-1.061.333-1.742.333-.654 0-1.219-.104-1.696-.311a2.609 2.609 0 0 1-1.121-.882c-.27-.384-.419-.838-.448-1.364h1.321c.026.315.128.578.307.788.182.208.414.363.695.465.284.1.595.15.933.15.372 0 .703-.06.993-.176.293-.119.523-.284.69-.494a1.17 1.17 0 0 0 .252-.746.914.914 0 0 0-.222-.635 1.638 1.638 0 0 0-.592-.409 5.778 5.778 0 0 0-.84-.285l-1.031-.281c-.699-.19-1.253-.47-1.662-.84-.406-.37-.609-.858-.609-1.466 0-.503.136-.942.409-1.317a2.687 2.687 0 0 1 1.108-.873 3.79 3.79 0 0 1 1.577-.316c.59 0 1.112.104 1.563.312.455.207.813.492 1.074.856.262.36.398.776.409 1.244h-1.27z"/><path fill="#888" fill-rule="evenodd" d="M255 21a4 4 0 0 0-4 4v10a4 4 0 0 0 4 4h10a4 4 0 0 0 4-4V25a4 4 0 0 0-4-4h-10zm1 5h8v2h-3v7h-2v-7h-3v-2zm68-1a4 4 0 0 1 4-4h10a4 4 0 0 1 4 4v10a4 4 0 0 1-4 4h-10a4 4 0 0 1-4-4V25zm13 1.5c0 1.38-1.791 2.5-4 2.5s-4-1.12-4-2.5 1.791-2.5 4-2.5 4 1.12 4 2.5zm-8 5.127v.873c0 1.38 1.791 2.5 4 2.5s4-1.12 4-2.5v-.873a4.179 4.179 0 0 1-.642.489c-.906.567-2.096.884-3.358.884s-2.452-.317-3.358-.884a4.207 4.207 0 0 1-.642-.489zm0-3v.873c0 1.38 1.791 2.5 4 2.5s4-1.12 4-2.5v-.873a4.207 4.207 0 0 1-.642.489c-.906.567-2.096.884-3.358.884a7.364 7.364 0 0 1-1.526-.16 5.757 5.757 0 0 1-1.832-.724 4.267 4.267 0 0 1-.642-.489z" clip-rule="evenodd"/><g filter="url(#b)"><rect width="48" height="30" x="15" y="15" fill="#fff" rx="8"/><path fill="#000" d="M25 27.924h4.943L35 32.962h-5.057V38L25 32.962v-5.038zM25 23h10v4.924h-5.057L25 23z"/><path stroke="#888" stroke-linecap="round" stroke-linejoin="round" stroke-width="1.5" d="m43 29 4 3.5 4-3.5"/></g><path fill="#EEE" d="M1378 59H0v2h1378v-2z" mask="url(#c)"/><path fill="#fff" d="M0 60h260v760H0z"/><path fill="#999" d="M26 588v-4l3 2-3 2zm0 31v-4l3 2-3 2z"/><path fill="#09F" d="M50 589a1 1 0 0 1-1 1h-7a1 1 0 0 1-1-1v-2a1 1 0 0 1 1-1h7a1 1 0 0 1 1 1v2zm0-5a1 1 0 0 1-1 1h-7a1 1 0 0 1-1-1v-2a1 1 0 0 1 1-1h7a1 1 0 0 1 1 1v2zm0 36a1 1 0 0 1-1 1h-7a1 1 0 0 1-1-1v-2a1 1 0 0 1 1-1h7a1 1 0 0 1 1 1v2zm0-5a1 1 0 0 1-1 1h-7a1 1 0 0 1-1-1v-2a1 1 0 0 1 1-1h7a1 1 0 0 1 1 1v2z"/><path fill="#707171" d="M62.08 582.21v-.937h6.545v.937h-2.744V590h-1.057v-7.79H62.08zm9.075 7.943c-.415 0-.791-.078-1.13-.234a1.94 1.94 0 0 1-.805-.686c-.198-.301-.298-.665-.298-1.091 0-.375.074-.679.222-.912.147-.236.345-.42.592-.554a3.12 3.12 0 0 1 .818-.298c.302-.068.604-.122.908-.162.398-.051.72-.09.967-.115.25-.029.432-.075.546-.141.116-.065.175-.179.175-.341v-.034c0-.42-.116-.747-.346-.98-.227-.233-.572-.349-1.035-.349-.48 0-.857.105-1.13.315-.272.21-.464.435-.575.673l-.954-.341c.17-.397.397-.707.681-.929.288-.224.6-.38.938-.468a3.89 3.89 0 0 1 1.006-.137 4 4 0 0 1 .724.077c.276.048.541.149.797.303.259.153.473.385.644.694.17.31.255.725.255 1.245V590H73.15v-.886h-.052a1.775 1.775 0 0 1-.34.456c-.16.162-.371.299-.635.413-.265.114-.587.17-.968.17zm.154-.903c.397 0 .733-.078 1.005-.234a1.602 1.602 0 0 0 .836-1.385v-.921c-.043.051-.137.098-.282.141a4.65 4.65 0 0 1-.494.106 20.937 20.937 0 0 1-.963.128 3.89 3.89 0 0 0-.733.166 1.261 1.261 0 0 0-.546.337c-.136.148-.204.349-.204.605 0 .35.13.614.388.793.261.176.592.264.993.264zm4.818.75v-8.727h1.006v3.221h.085a9.15 9.15 0 0 1 .307-.434c.133-.179.324-.338.57-.478.25-.142.589-.213 1.015-.213.551 0 1.037.138 1.457.414.42.275.75.666.985 1.172.236.505.353 1.102.353 1.789 0 .694-.117 1.294-.353 1.803-.236.506-.563.898-.98 1.176-.418.276-.9.413-1.445.413-.42 0-.757-.069-1.01-.208a1.87 1.87 0 0 1-.584-.482 6.332 6.332 0 0 1-.315-.452h-.12V590h-.97zm.989-3.273c0 .495.072.931.217 1.309.145.375.357.669.635.882.278.21.62.315 1.023.315.42 0 .771-.111 1.052-.332.284-.225.497-.526.64-.904.144-.381.217-.804.217-1.27 0-.46-.071-.875-.213-1.244a1.924 1.924 0 0 0-.635-.882c-.281-.219-.635-.328-1.061-.328-.41 0-.753.103-1.031.311a1.862 1.862 0 0 0-.631.861c-.142.366-.213.794-.213 1.282zm7.334-5.454V590h-1.006v-8.727h1.006zm4.586 8.863c-.63 0-1.175-.139-1.632-.417a2.806 2.806 0 0 1-1.053-1.176c-.244-.506-.366-1.094-.366-1.765 0-.67.122-1.261.366-1.772a2.888 2.888 0 0 1 1.031-1.202c.444-.29.96-.435 1.552-.435a3.1 3.1 0 0 1 1.01.171c.332.113.635.298.907.554.273.253.49.588.652 1.005.162.418.243.932.243 1.543v.426h-5.045v-.869h4.022a2.15 2.15 0 0 0-.221-.989 1.67 1.67 0 0 0-.622-.686 1.747 1.747 0 0 0-.946-.251c-.401 0-.748.099-1.04.298a1.97 1.97 0 0 0-.67.767 2.25 2.25 0 0 0-.234 1.014v.58c0 .494.086.913.256 1.257.173.341.413.601.72.78.307.176.664.264 1.07.264.264 0 .503-.037.716-.111a1.53 1.53 0 0 0 .558-.341c.156-.153.277-.344.362-.571l.972.273a2.157 2.157 0 0 1-.516.869c-.241.247-.54.441-.895.58a3.327 3.327 0 0 1-1.197.204zm7.087-6.681v.852H92.73v-.852h3.392zm-2.404-1.569h1.006v6.239c0 .284.041.497.123.639a.639.639 0 0 0 .324.281c.134.046.274.069.422.069.11 0 .202-.006.273-.017l.17-.035.205.904a2.184 2.184 0 0 1-.75.119c-.284 0-.563-.061-.835-.183a1.657 1.657 0 0 1-.674-.558c-.176-.25-.264-.566-.264-.946v-6.512zM62.08 613.21v-.937h6.545v.937h-2.744V621h-1.057v-7.79H62.08zm9.075 7.943c-.415 0-.791-.078-1.13-.234a1.94 1.94 0 0 1-.805-.686c-.198-.301-.298-.665-.298-1.091 0-.375.074-.679.222-.912.147-.236.345-.42.592-.554a3.12 3.12 0 0 1 .818-.298c.302-.068.604-.122.908-.162.398-.051.72-.09.967-.115.25-.029.432-.075.546-.141.116-.065.175-.179.175-.341v-.034c0-.42-.116-.747-.346-.98-.227-.233-.572-.349-1.035-.349-.48 0-.857.105-1.13.315-.272.21-.464.435-.575.673l-.954-.341c.17-.397.397-.707.681-.929.288-.224.6-.38.938-.468a3.89 3.89 0 0 1 1.006-.137 4 4 0 0 1 .724.077c.276.048.541.149.797.303.259.153.473.385.644.694.17.31.255.725.255 1.245V621H73.15v-.886h-.052a1.775 1.775 0 0 1-.34.456c-.16.162-.371.299-.635.413-.265.114-.587.17-.968.17zm.154-.903c.397 0 .733-.078 1.005-.234a1.602 1.602 0 0 0 .836-1.385v-.921c-.043.051-.137.098-.282.141a4.65 4.65 0 0 1-.494.106 20.937 20.937 0 0 1-.963.128 3.89 3.89 0 0 0-.733.166 1.261 1.261 0 0 0-.546.337c-.136.148-.204.349-.204.605 0 .35.13.614.388.793.261.176.592.264.993.264zm4.818.75v-8.727h1.006v3.221h.085a9.15 9.15 0 0 1 .307-.434c.133-.179.324-.338.57-.478.25-.142.589-.213 1.015-.213.551 0 1.037.138 1.457.414.42.275.75.666.985 1.172.236.505.353 1.102.353 1.789 0 .694-.117 1.294-.353 1.803-.236.506-.563.898-.98 1.176-.418.276-.9.413-1.445.413-.42 0-.757-.069-1.01-.208a1.87 1.87 0 0 1-.584-.482 6.332 6.332 0 0 1-.315-.452h-.12V621h-.97zm.989-3.273c0 .495.072.931.217 1.309.145.375.357.669.635.882.278.21.62.315 1.023.315.42 0 .771-.111 1.052-.332.284-.225.497-.526.64-.904.144-.381.217-.804.217-1.27 0-.46-.071-.875-.213-1.244a1.924 1.924 0 0 0-.635-.882c-.281-.219-.635-.328-1.061-.328-.41 0-.753.103-1.031.311a1.862 1.862 0 0 0-.631.861c-.142.366-.213.794-.213 1.282zm7.334-5.454V621h-1.006v-8.727h1.006zm4.586 8.863c-.63 0-1.175-.139-1.632-.417a2.806 2.806 0 0 1-1.053-1.176c-.244-.506-.366-1.094-.366-1.765 0-.67.122-1.261.366-1.772a2.888 2.888 0 0 1 1.031-1.202c.444-.29.96-.435 1.552-.435a3.1 3.1 0 0 1 1.01.171c.332.113.635.298.907.554.273.253.49.588.652 1.005.162.418.243.932.243 1.543v.426h-5.045v-.869h4.022a2.15 2.15 0 0 0-.221-.989 1.67 1.67 0 0 0-.622-.686 1.747 1.747 0 0 0-.946-.251c-.401 0-.748.099-1.04.298a1.97 1.97 0 0 0-.67.767 2.25 2.25 0 0 0-.234 1.014v.58c0 .494.086.913.256 1.257.173.341.413.601.72.78.307.176.664.264 1.07.264.264 0 .503-.037.716-.111a1.53 1.53 0 0 0 .558-.341c.156-.153.277-.344.362-.571l.972.273a2.157 2.157 0 0 1-.516.869c-.241.247-.54.441-.895.58a3.327 3.327 0 0 1-1.197.204zm7.087-6.681v.852H92.73v-.852h3.392zm-2.404-1.569h1.006v6.239c0 .284.041.497.123.639a.639.639 0 0 0 .324.281c.134.046.274.069.422.069.11 0 .202-.006.273-.017l.17-.035.205.904a2.184 2.184 0 0 1-.75.119c-.284 0-.563-.061-.835-.183a1.657 1.657 0 0 1-.674-.558c-.176-.25-.264-.566-.264-.946v-6.512zm83.178-31.613V590h-1.056v-7.619h-.052l-2.13 1.414v-1.073l2.182-1.449h1.056zm2.51 8.727v-.767l2.881-3.153c.338-.37.616-.691.835-.964.219-.275.381-.534.486-.775.108-.244.162-.5.162-.767a1.413 1.413 0 0 0-.818-1.317 1.938 1.938 0 0 0-.853-.183c-.335 0-.627.069-.877.209a1.436 1.436 0 0 0-.576.575c-.133.247-.2.537-.2.869h-1.006c0-.511.118-.96.354-1.346.236-.387.557-.688.963-.904a2.903 2.903 0 0 1 1.377-.324c.511 0 .964.108 1.359.324.395.216.705.507.929.874.224.366.337.774.337 1.223 0 .321-.059.635-.175.942-.114.304-.313.643-.597 1.018-.281.372-.672.827-1.172 1.364l-1.96 2.096v.068h4.057V590h-5.506zm7.539 0 3.903-7.722v-.068h-4.5v-.937h5.591v.988L188.054 590h-1.108zm9.244-8.847a3.11 3.11 0 0 1 1.073.205c.358.133.685.355.981.665.295.307.532.726.711 1.257.179.531.269 1.197.269 1.998 0 .776-.074 1.465-.222 2.067-.145.6-.355 1.105-.631 1.517a2.79 2.79 0 0 1-.997.938 2.704 2.704 0 0 1-1.321.319c-.488 0-.924-.096-1.308-.289a2.567 2.567 0 0 1-.937-.814 2.832 2.832 0 0 1-.465-1.215h1.04c.094.401.28.732.558.993.281.259.652.388 1.112.388.674 0 1.205-.294 1.594-.882.392-.588.588-1.419.588-2.493h-.068a2.697 2.697 0 0 1-.567.618 2.49 2.49 0 0 1-.729.4 2.547 2.547 0 0 1-.852.141c-.5 0-.959-.124-1.376-.371a2.808 2.808 0 0 1-.997-1.027c-.248-.437-.371-.937-.371-1.5 0-.534.119-1.023.358-1.466a2.76 2.76 0 0 1 1.014-1.065c.438-.264.952-.392 1.543-.384zm0 .938c-.358 0-.681.089-.968.268-.284.177-.51.415-.677.716a2.02 2.02 0 0 0-.247.993c0 .364.079.695.238.993.162.296.382.531.661.707.281.174.601.26.959.26a1.816 1.816 0 0 0 1.363-.596c.176-.188.314-.399.414-.635a1.963 1.963 0 0 0-.098-1.705 1.967 1.967 0 0 0-.674-.724 1.74 1.74 0 0 0-.971-.277zm11.852 3.077v.937h-3.819v-.937h3.819zm7.922 4.951c-.585 0-1.102-.103-1.551-.311a2.536 2.536 0 0 1-1.044-.865 2.17 2.17 0 0 1-.37-1.261 2.314 2.314 0 0 1 .822-1.811 1.86 1.86 0 0 1 .865-.405v-.051a1.686 1.686 0 0 1-.997-.703 2.139 2.139 0 0 1-.367-1.24c-.002-.444.11-.84.337-1.189.227-.35.54-.625.938-.827.4-.202.856-.303 1.367-.303.506 0 .958.101 1.356.303.397.202.71.477.937.827.23.349.347.745.35 1.189-.003.463-.13.876-.38 1.24-.247.36-.575.595-.984.703v.051c.315.057.599.192.852.405.253.21.455.473.605.788.151.313.228.653.23 1.023-.002.471-.13.892-.383 1.261-.25.367-.598.655-1.044.865-.443.208-.956.311-1.539.311zm0-.937c.395 0 .736-.064 1.023-.192.287-.128.509-.308.665-.541.156-.233.236-.506.239-.818a1.569 1.569 0 0 0-.256-.874 1.726 1.726 0 0 0-.686-.596 2.154 2.154 0 0 0-.985-.218c-.372 0-.704.073-.997.218a1.733 1.733 0 0 0-.686.596 1.544 1.544 0 0 0-.243.874 1.44 1.44 0 0 0 .226.818c.156.233.379.413.669.541.29.128.634.192 1.031.192zm0-4.142c.313 0 .59-.063.831-.188.245-.125.437-.299.576-.524.139-.224.21-.487.213-.788a1.462 1.462 0 0 0-.209-.772 1.35 1.35 0 0 0-.567-.511 1.845 1.845 0 0 0-.844-.183c-.326 0-.612.061-.856.183-.244.119-.433.29-.567.511a1.429 1.429 0 0 0-.196.772 1.46 1.46 0 0 0 .2.788c.14.225.331.399.576.524.244.125.525.188.843.188zm7.548 5.079c-.562 0-1.063-.096-1.504-.289a2.59 2.59 0 0 1-1.044-.806 2.154 2.154 0 0 1-.417-1.206h1.073c.023.281.12.524.29.729.171.202.394.358.669.469.276.11.581.166.916.166.375 0 .708-.066.998-.196.289-.131.517-.313.681-.546.165-.233.248-.502.248-.809 0-.321-.08-.604-.239-.848a1.58 1.58 0 0 0-.699-.58c-.307-.139-.682-.209-1.125-.209h-.699v-.937h.699c.347 0 .651-.063.912-.188.264-.125.47-.301.618-.528a1.42 1.42 0 0 0 .226-.801c0-.296-.066-.553-.196-.772a1.35 1.35 0 0 0-.554-.511 1.799 1.799 0 0 0-.836-.183c-.301 0-.585.055-.852.166-.264.108-.48.266-.648.473a1.236 1.236 0 0 0-.272.742h-1.023c.017-.458.155-.858.413-1.202a2.6 2.6 0 0 1 1.015-.81c.42-.193.882-.29 1.385-.29.539 0 1.002.11 1.389.329a2.3 2.3 0 0 1 .89.856c.208.355.311.739.311 1.151 0 .491-.129.91-.387 1.257a1.973 1.973 0 0 1-1.044.72v.068c.551.091.981.325 1.291.703.309.375.464.84.464 1.394 0 .474-.129.9-.387 1.278a2.632 2.632 0 0 1-1.049.886c-.443.216-.947.324-1.513.324zM228 588.21v-.869l3.835-6.068h.631v1.346h-.427l-2.897 4.586v.068h5.164v.937H228zm4.108 1.79v-8.727h1.005V590h-1.005zm-35.854 31.119c-.586 0-1.103-.103-1.552-.311a2.536 2.536 0 0 1-1.044-.865 2.17 2.17 0 0 1-.37-1.261 2.314 2.314 0 0 1 .822-1.811 1.86 1.86 0 0 1 .865-.405v-.051a1.69 1.69 0 0 1-.997-.703 2.13 2.13 0 0 1-.366-1.24c-.003-.444.109-.84.336-1.189.227-.35.54-.625.938-.827.4-.202.856-.303 1.368-.303.505 0 .957.101 1.355.303.397.202.71.477.937.827.23.349.347.745.35 1.189-.003.463-.13.876-.38 1.24-.247.36-.575.595-.984.703v.051c.315.057.599.192.852.405.253.21.455.473.605.788.151.313.228.653.23 1.023-.002.471-.13.892-.383 1.261-.25.367-.598.655-1.044.865-.443.208-.956.311-1.538.311zm0-.937c.394 0 .735-.064 1.022-.192.287-.128.509-.308.665-.541.156-.233.236-.506.239-.818a1.569 1.569 0 0 0-.256-.874 1.726 1.726 0 0 0-.686-.596 2.153 2.153 0 0 0-.984-.218c-.373 0-.705.073-.998.218a1.733 1.733 0 0 0-.686.596 1.552 1.552 0 0 0-.243.874 1.44 1.44 0 0 0 .226.818c.157.233.38.413.669.541.29.128.634.192 1.032.192zm0-4.142c.312 0 .589-.063.831-.188.244-.125.436-.299.575-.524.139-.224.21-.487.213-.788a1.462 1.462 0 0 0-.209-.772 1.35 1.35 0 0 0-.567-.511 1.843 1.843 0 0 0-.843-.183c-.327 0-.613.061-.857.183-.244.119-.433.29-.567.511a1.429 1.429 0 0 0-.196.772c-.003.301.064.564.201.788.139.225.33.399.575.524.244.125.525.188.844.188zm7.547 5.079c-.562 0-1.063-.096-1.504-.289a2.59 2.59 0 0 1-1.044-.806 2.161 2.161 0 0 1-.417-1.206h1.073c.023.281.12.524.29.729.171.202.394.358.669.469.276.11.581.166.916.166.375 0 .708-.066.998-.196.289-.131.517-.313.681-.546.165-.233.248-.502.248-.809 0-.321-.08-.604-.239-.848a1.58 1.58 0 0 0-.699-.58c-.307-.139-.682-.209-1.125-.209h-.699v-.937h.699c.347 0 .651-.063.912-.188.264-.125.47-.301.618-.528a1.42 1.42 0 0 0 .226-.801c0-.296-.066-.553-.196-.772a1.35 1.35 0 0 0-.554-.511 1.795 1.795 0 0 0-.835-.183c-.302 0-.586.055-.853.166-.264.108-.48.266-.647.473a1.23 1.23 0 0 0-.273.742h-1.023c.017-.458.155-.858.413-1.202a2.6 2.6 0 0 1 1.015-.81c.42-.193.882-.29 1.385-.29.539 0 1.002.11 1.389.329a2.3 2.3 0 0 1 .89.856c.208.355.311.739.311 1.151 0 .491-.129.91-.387 1.257a1.973 1.973 0 0 1-1.044.72v.068c.551.091.981.325 1.291.703.31.375.464.84.464 1.394 0 .474-.129.9-.387 1.278a2.632 2.632 0 0 1-1.049.886c-.443.216-.947.324-1.513.324zm7.641 0c-.562 0-1.064-.096-1.504-.289a2.576 2.576 0 0 1-1.044-.806 2.162 2.162 0 0 1-.418-1.206h1.074c.023.281.119.524.29.729.17.202.393.358.669.469.275.11.581.166.916.166.375 0 .707-.066.997-.196.29-.131.517-.313.682-.546.165-.233.247-.502.247-.809 0-.321-.079-.604-.238-.848a1.585 1.585 0 0 0-.699-.58c-.307-.139-.682-.209-1.125-.209h-.699v-.937h.699c.346 0 .65-.063.912-.188.264-.125.47-.301.618-.528a1.42 1.42 0 0 0 .225-.801c0-.296-.065-.553-.196-.772a1.337 1.337 0 0 0-.554-.511 1.792 1.792 0 0 0-.835-.183c-.301 0-.585.055-.852.166-.264.108-.48.266-.648.473a1.243 1.243 0 0 0-.273.742h-1.022c.017-.458.155-.858.413-1.202a2.605 2.605 0 0 1 1.014-.81c.421-.193.882-.29 1.385-.29.54 0 1.003.11 1.389.329.387.215.684.501.891.856.207.355.311.739.311 1.151 0 .491-.129.91-.388 1.257a1.966 1.966 0 0 1-1.044.72v.068c.551.091.982.325 1.291.703.31.375.465.84.465 1.394 0 .474-.129.9-.388 1.278a2.622 2.622 0 0 1-1.048.886c-.443.216-.948.324-1.513.324zm11.834-4.951v.937h-3.818v-.937h3.818zm7.974 4.951c-.642 0-1.189-.174-1.641-.524-.451-.352-.796-.862-1.035-1.53-.239-.67-.358-1.48-.358-2.429 0-.943.119-1.748.358-2.416.241-.67.588-1.182 1.04-1.534.454-.355 1-.533 1.636-.533.636 0 1.18.178 1.632.533.455.352.801.864 1.04 1.534.241.668.362 1.473.362 2.416 0 .949-.119 1.759-.358 2.429-.238.668-.584 1.178-1.035 1.53-.452.35-.999.524-1.641.524zm0-.937c.636 0 1.131-.307 1.483-.921.352-.613.528-1.488.528-2.625 0-.755-.081-1.399-.243-1.93-.159-.531-.389-.936-.69-1.215a1.525 1.525 0 0 0-1.078-.417c-.631 0-1.124.311-1.479.933-.355.619-.532 1.496-.532 2.629 0 .756.079 1.398.238 1.926.159.529.388.931.686 1.206.301.276.664.414 1.087.414z"/><rect width="230" height="436" x="15" y="135" fill="#EAF4FF" rx="8"/><path fill="#09F" d="M15 135h230v30H15z"/><path fill="#fff" d="m27.5 151.5-2-3h4l-2 3zm171.375 2.5v-7.273h2.593c.565 0 1.034.103 1.406.309.371.206.65.488.834.845.185.356.277.756.277 1.201 0 .447-.093.85-.28 1.207a2.03 2.03 0 0 1-.838.845c-.372.206-.84.309-1.403.309h-1.783v-.93h1.684c.357 0 .647-.062.87-.185.222-.125.385-.296.49-.511.104-.216.156-.461.156-.735 0-.275-.052-.519-.156-.732a1.127 1.127 0 0 0-.494-.501c-.223-.12-.516-.181-.881-.181h-1.378V154h-1.097zm6.311 0v-5.455h1.027v.867h.057c.099-.294.274-.524.525-.693.253-.17.54-.255.859-.255a4.25 4.25 0 0 1 .451.025v1.015a1.8 1.8 0 0 0-.227-.039 2.25 2.25 0 0 0-.327-.025c-.25 0-.474.054-.671.16-.194.104-.348.25-.461.437a1.178 1.178 0 0 0-.171.632V154h-1.062zm3.838 0v-5.455h1.062V154h-1.062zm.537-6.296a.675.675 0 0 1-.476-.185.596.596 0 0 1-.196-.447c0-.175.065-.325.196-.448a.669.669 0 0 1 .476-.188c.184 0 .342.063.472.188a.592.592 0 0 1 .199.448.596.596 0 0 1-.199.447.663.663 0 0 1-.472.185zm1.954 6.296v-5.455h1.019v.888h.067c.114-.3.3-.535.558-.703.258-.17.567-.256.927-.256.364 0 .67.086.916.256.248.171.432.405.55.703h.057c.13-.291.337-.523.621-.696.285-.175.623-.263 1.016-.263.495 0 .899.155 1.211.466.315.31.472.777.472 1.402V154h-1.061v-3.558c0-.37-.101-.637-.302-.803a1.098 1.098 0 0 0-.721-.248c-.346 0-.615.106-.806.319-.192.211-.288.482-.288.813V154h-1.058v-3.626c0-.296-.093-.534-.277-.713-.185-.18-.425-.27-.721-.27a1.04 1.04 0 0 0-.558.159c-.168.105-.304.25-.408.437a1.337 1.337 0 0 0-.153.65V154h-1.061zm10.425.121c-.346 0-.658-.064-.938-.192-.279-.13-.5-.318-.664-.565-.161-.246-.241-.548-.241-.905 0-.308.059-.561.177-.76.119-.199.278-.356.48-.472.201-.116.426-.204.674-.263a6.82 6.82 0 0 1 .76-.135l.796-.092c.203-.027.351-.068.444-.125.092-.057.138-.149.138-.277v-.025c0-.31-.087-.55-.263-.721-.172-.17-.43-.255-.774-.255-.357 0-.639.079-.845.238-.203.156-.344.33-.422.522l-.998-.228c.118-.331.291-.598.518-.802.23-.206.494-.355.792-.448a3.112 3.112 0 0 1 1.634-.063c.246.049.475.142.688.277.216.134.392.327.53.578.137.249.206.572.206.97V154h-1.037v-.746h-.043a1.506 1.506 0 0 1-.309.405 1.625 1.625 0 0 1-.529.33 2.044 2.044 0 0 1-.774.132zm.231-.853c.293 0 .544-.058.752-.174.211-.116.371-.267.48-.454.111-.189.167-.392.167-.607v-.703a.563.563 0 0 1-.22.106 3.494 3.494 0 0 1-.366.082l-.401.06-.327.043c-.206.026-.394.07-.565.131a.976.976 0 0 0-.405.266.67.67 0 0 0-.149.455c0 .263.097.462.291.597.195.132.442.198.743.198zm3.875.732v-5.455h1.026v.867h.057c.099-.294.275-.524.525-.693.254-.17.54-.255.86-.255a4.243 4.243 0 0 1 .451.025v1.015a1.873 1.873 0 0 0-.227-.039 2.25 2.25 0 0 0-.327-.025 1.39 1.39 0 0 0-.671.16 1.191 1.191 0 0 0-.632 1.069V154h-1.062zm4.675 2.045c-.159 0-.303-.013-.433-.039a1.291 1.291 0 0 1-.292-.078l.256-.87c.194.052.367.075.519.068a.619.619 0 0 0 .401-.171c.118-.106.222-.28.312-.522l.132-.362-1.996-5.526h1.136l1.382 4.233h.057l1.381-4.233h1.14l-2.248 6.183a2.471 2.471 0 0 1-.398.721 1.533 1.533 0 0 1-.575.447c-.223.1-.481.149-.774.149zM65.784 154H62.96v-8.727h2.915c.855 0 1.59.174 2.203.524a3.45 3.45 0 0 1 1.41 1.496c.33.647.495 1.424.495 2.331 0 .909-.167 1.69-.499 2.343a3.496 3.496 0 0 1-1.432 1.509c-.625.349-1.38.524-2.267.524zm-1.508-1.151h1.436c.664 0 1.217-.125 1.657-.375.44-.252.77-.617.989-1.095.219-.48.328-1.065.328-1.755 0-.685-.11-1.266-.328-1.743a2.315 2.315 0 0 0-.967-1.087c-.43-.247-.962-.371-1.598-.371h-1.517v6.426zm10.062 1.283c-.645 0-1.2-.138-1.666-.413a2.807 2.807 0 0 1-1.074-1.172c-.25-.506-.375-1.098-.375-1.777 0-.671.125-1.261.375-1.773a2.91 2.91 0 0 1 1.056-1.197c.455-.287.986-.431 1.594-.431.37 0 .727.061 1.074.184.347.122.658.313.933.575.276.261.493.601.652 1.018.16.415.239.919.239 1.513v.452h-5.203v-.955h3.954c0-.335-.068-.632-.204-.89a1.538 1.538 0 0 0-.575-.618 1.604 1.604 0 0 0-.861-.226c-.358 0-.67.088-.938.264a1.774 1.774 0 0 0-.613.682 1.968 1.968 0 0 0-.213.908v.745c0 .438.076.81.23 1.117.156.307.373.541.652.703.278.159.603.239.975.239.242 0 .462-.035.661-.103a1.366 1.366 0 0 0 .848-.831l1.206.218c-.097.355-.27.666-.52.933-.247.264-.558.47-.933.618a3.49 3.49 0 0 1-1.274.217zm9.127-5.079-1.155.204a1.37 1.37 0 0 0-.23-.422 1.14 1.14 0 0 0-.418-.328 1.515 1.515 0 0 0-.66-.128c-.361 0-.662.081-.904.243-.242.159-.362.365-.362.618a.65.65 0 0 0 .243.528c.162.134.423.243.784.329l1.04.238c.602.139 1.05.354 1.346.644.296.289.443.666.443 1.129 0 .392-.113.741-.34 1.048-.225.304-.539.543-.942.716-.4.173-.865.26-1.394.26-.733 0-1.33-.156-1.794-.469-.463-.315-.747-.762-.852-1.342l1.231-.187c.077.321.235.563.473.728.24.162.55.243.934.243.417 0 .751-.087 1.001-.26.25-.176.375-.39.375-.643a.669.669 0 0 0-.23-.516c-.15-.139-.382-.244-.695-.315l-1.108-.243c-.61-.139-1.062-.361-1.355-.665-.29-.304-.434-.689-.434-1.155 0-.386.108-.724.323-1.014a2.12 2.12 0 0 1 .895-.678 3.28 3.28 0 0 1 1.309-.247c.707 0 1.264.154 1.67.461.406.304.675.711.805 1.223zm2.7 2.727-.008-1.556h.221l2.608-2.769h1.526l-2.975 3.153h-.2l-1.172 1.172zM84.993 154v-8.727h1.274V154h-1.274zm4.134 0-2.344-3.111.878-.89L90.69 154h-1.564zm5.601-6.545v1.022h-3.575v-1.022h3.575zm-2.616-1.569h1.274v6.192c0 .247.037.433.11.558a.578.578 0 0 0 .286.252c.12.042.249.064.388.064.102 0 .192-.007.269-.022l.179-.034.23 1.053a2.525 2.525 0 0 1-.827.136 2.238 2.238 0 0 1-.938-.179 1.61 1.61 0 0 1-.703-.579c-.179-.262-.268-.59-.268-.985v-6.456zm6.713 8.246c-.614 0-1.15-.141-1.607-.422a2.84 2.84 0 0 1-1.065-1.18c-.253-.506-.38-1.097-.38-1.773 0-.679.127-1.273.38-1.781a2.836 2.836 0 0 1 1.065-1.185c.457-.281.993-.422 1.607-.422.613 0 1.149.141 1.606.422.457.281.813.676 1.065 1.185.253.508.38 1.102.38 1.781 0 .676-.127 1.267-.38 1.773a2.836 2.836 0 0 1-1.065 1.18c-.457.281-.993.422-1.606.422zm.004-1.07c.398 0 .727-.105.989-.315.261-.21.454-.49.579-.839a3.34 3.34 0 0 0 .192-1.155c0-.418-.064-.801-.192-1.151a1.874 1.874 0 0 0-.58-.848c-.26-.213-.59-.319-.988-.319-.4 0-.733.106-.997.319a1.905 1.905 0 0 0-.584.848c-.125.35-.188.733-.188 1.151 0 .42.063.805.188 1.155.128.349.322.629.584.839.264.21.596.315.997.315zm4.469 3.393v-9h1.244v1.061h.107c.074-.137.18-.294.319-.473.14-.179.333-.336.58-.469.247-.136.574-.205.98-.205.528 0 1 .134 1.415.401.415.267.74.652.976 1.155.238.503.358 1.108.358 1.815 0 .707-.118 1.314-.354 1.82-.236.502-.56.89-.972 1.163-.412.27-.882.405-1.41.405-.398 0-.723-.067-.976-.2a1.853 1.853 0 0 1-.588-.469 3.498 3.498 0 0 1-.328-.477h-.077v3.473h-1.274zm1.249-5.728c0 .46.066.864.2 1.211.133.346.327.617.579.813.253.194.563.29.929.29.381 0 .699-.101.955-.302.256-.205.449-.482.579-.831a3.28 3.28 0 0 0 .201-1.181c0-.432-.066-.819-.196-1.163a1.78 1.78 0 0 0-.58-.814c-.256-.199-.575-.298-.959-.298-.369 0-.681.095-.937.285a1.75 1.75 0 0 0-.575.797 3.319 3.319 0 0 0-.196 1.193z"/><rect width="10" height="10" x="41" y="145" fill="#fff" rx="2"/><path fill="#999" d="m47.5 182-2-3h4l-2 3zM67 240l-2-3h4l-2 3zM46 472v-4l3 2-3 2zm0 29v-4l3 2-3 2zm0 29v-4l3 2-3 2zm42-174-2-3h4l-2 3z"/><path fill="#09F" d="M61 176a1 1 0 0 1 1-1h7a1 1 0 0 1 1 1v2a1 1 0 0 1-1 1h-7a1 1 0 0 1-1-1v-2zm0 5a1 1 0 0 1 1-1h7a1 1 0 0 1 1 1v2a1 1 0 0 1-1 1h-7a1 1 0 0 1-1-1v-2zm20 53a1 1 0 0 1 1-1h7a1 1 0 0 1 1 1v2a1 1 0 0 1-1 1h-7a1 1 0 0 1-1-1v-2zm0 5a1 1 0 0 1 1-1h7a1 1 0 0 1 1 1v2a1 1 0 0 1-1 1h-7a1 1 0 0 1-1-1v-2zM70 473a1 1 0 0 1-1 1h-7a1 1 0 0 1-1-1v-2a1 1 0 0 1 1-1h7a1 1 0 0 1 1 1v2zm0-5a1 1 0 0 1-1 1h-7a1 1 0 0 1-1-1v-2a1 1 0 0 1 1-1h7a1 1 0 0 1 1 1v2zm0 34a1 1 0 0 1-1 1h-7a1 1 0 0 1-1-1v-2a1 1 0 0 1 1-1h7a1 1 0 0 1 1 1v2zm0-5a1 1 0 0 1-1 1h-7a1 1 0 0 1-1-1v-2a1 1 0 0 1 1-1h7a1 1 0 0 1 1 1v2zm0 34a1 1 0 0 1-1 1h-7a1 1 0 0 1-1-1v-2a1 1 0 0 1 1-1h7a1 1 0 0 1 1 1v2zm0-5a1 1 0 0 1-1 1h-7a1 1 0 0 1-1-1v-2a1 1 0 0 1 1-1h7a1 1 0 0 1 1 1v2z"/><path fill="#707171" d="M85.75 184h-2.693v-8.727h2.812c.847 0 1.571.174 2.174.524a3.427 3.427 0 0 1 1.385 1.496c.32.647.481 1.423.481 2.326 0 .909-.162 1.692-.486 2.348a3.458 3.458 0 0 1-1.415 1.509c-.619.349-1.372.524-2.258.524zm-1.636-.938h1.568c.721 0 1.32-.139 1.794-.417a2.577 2.577 0 0 0 1.06-1.189c.234-.514.35-1.126.35-1.837 0-.704-.115-1.311-.345-1.819a2.539 2.539 0 0 0-1.031-1.176c-.457-.276-1.027-.414-1.709-.414h-1.687v6.852zm10.176 1.074c-.63 0-1.175-.139-1.632-.417a2.806 2.806 0 0 1-1.053-1.176c-.244-.506-.366-1.094-.366-1.765 0-.67.122-1.261.366-1.772a2.888 2.888 0 0 1 1.031-1.202c.444-.29.96-.435 1.552-.435a3.1 3.1 0 0 1 1.01.171c.332.113.634.298.907.554.273.253.49.588.652 1.005.162.418.243.932.243 1.543v.426h-5.046v-.869h4.023a2.15 2.15 0 0 0-.221-.989 1.67 1.67 0 0 0-.623-.686 1.747 1.747 0 0 0-.945-.251c-.401 0-.748.099-1.04.298a1.97 1.97 0 0 0-.67.767 2.25 2.25 0 0 0-.234 1.014v.58c0 .494.085.913.256 1.257.173.341.413.601.72.78.307.176.663.264 1.07.264.264 0 .503-.037.716-.111a1.53 1.53 0 0 0 .558-.341c.156-.153.277-.344.362-.571l.972.273a2.156 2.156 0 0 1-.516.869c-.241.247-.54.441-.895.58a3.326 3.326 0 0 1-1.197.204zm8.876-5.216-.903.256a1.689 1.689 0 0 0-.252-.439 1.217 1.217 0 0 0-.443-.358c-.187-.093-.427-.14-.72-.14-.401 0-.734.092-1.001.277-.265.181-.397.413-.397.694 0 .25.091.448.273.593.182.144.466.265.852.362l.972.238c.585.142 1.021.36 1.308.652.287.29.431.664.431 1.121 0 .375-.108.71-.324 1.006a2.16 2.16 0 0 1-.895.699c-.384.17-.83.255-1.338.255-.668 0-1.22-.145-1.658-.434-.438-.29-.715-.713-.83-1.27l.954-.239c.09.352.262.617.515.793.256.176.59.264 1.002.264.468 0 .841-.099 1.116-.298.279-.202.418-.443.418-.725a.763.763 0 0 0-.239-.571c-.159-.156-.403-.272-.733-.349l-1.091-.256c-.6-.142-1.04-.362-1.32-.66-.28-.302-.418-.678-.418-1.13 0-.369.103-.696.31-.98.21-.284.496-.507.857-.669a3.007 3.007 0 0 1 1.236-.243c.648 0 1.156.142 1.526.426.372.285.636.66.792 1.125zm2.571 2.694-.017-1.245h.204l2.864-2.914h1.244l-3.051 3.085h-.085l-1.159 1.074zm-.938 2.386v-8.727h1.006V184h-1.006zm4.159 0-2.556-3.239.716-.699 3.119 3.938h-1.279zm5.215-6.545v.852h-3.392v-.852h3.392zm-2.403-1.569h1.006v6.239c0 .284.041.497.123.639a.637.637 0 0 0 .324.281c.134.046.274.069.422.069.111 0 .202-.006.273-.017l.17-.035.205.904a2.246 2.246 0 0 1-.75.119c-.284 0-.563-.061-.836-.183a1.662 1.662 0 0 1-.673-.558c-.176-.25-.264-.566-.264-.946v-6.512zm6.505 8.25c-.591 0-1.11-.14-1.556-.422a2.861 2.861 0 0 1-1.039-1.18c-.247-.506-.371-1.097-.371-1.773 0-.681.124-1.277.371-1.785.25-.509.596-.904 1.039-1.185.446-.281.965-.422 1.556-.422.591 0 1.108.141 1.551.422.446.281.793.676 1.04 1.185.25.508.375 1.104.375 1.785 0 .676-.125 1.267-.375 1.773a2.822 2.822 0 0 1-1.04 1.18c-.443.282-.96.422-1.551.422zm0-.903c.449 0 .818-.115 1.108-.345.29-.23.504-.533.643-.908a3.48 3.48 0 0 0 .209-1.219c0-.437-.07-.845-.209-1.223a2.061 2.061 0 0 0-.643-.916c-.29-.233-.659-.349-1.108-.349-.449 0-.818.116-1.108.349-.29.233-.504.539-.644.916a3.518 3.518 0 0 0-.208 1.223c0 .438.069.844.208 1.219.14.375.354.678.644.908.29.23.659.345 1.108.345zm4.501 3.222v-9h.972v1.039h.119a9.15 9.15 0 0 1 .307-.434c.133-.179.324-.338.571-.478.25-.142.588-.213 1.014-.213.551 0 1.037.138 1.457.414.421.275.749.666.985 1.172.235.505.353 1.102.353 1.789 0 .694-.118 1.294-.353 1.803-.236.506-.563.898-.98 1.176-.418.276-.9.413-1.445.413-.421 0-.757-.069-1.01-.208a1.878 1.878 0 0 1-.584-.482 6.475 6.475 0 0 1-.315-.452h-.085v3.461h-1.006zm.989-5.728c0 .495.072.931.217 1.309.145.375.356.669.635.882.278.21.619.315 1.023.315.42 0 .771-.111 1.052-.332.284-.225.497-.526.639-.904.145-.381.218-.804.218-1.27 0-.46-.071-.875-.213-1.244a1.93 1.93 0 0 0-.635-.882c-.282-.219-.635-.328-1.061-.328-.41 0-.753.103-1.032.311a1.862 1.862 0 0 0-.63.861c-.142.366-.213.794-.213 1.282zM102.557 242v-8.727h1.057v3.886h4.653v-3.886h1.057V242h-1.057v-3.903h-4.653V242h-1.057zm11.491.136c-.631 0-1.175-.139-1.633-.417a2.808 2.808 0 0 1-1.052-1.176c-.244-.506-.367-1.094-.367-1.765 0-.67.123-1.261.367-1.772a2.888 2.888 0 0 1 1.031-1.202c.443-.29.96-.435 1.551-.435.341 0 .678.057 1.01.171.333.113.635.298.908.554.273.253.49.588.652 1.005.162.418.243.932.243 1.543v.426h-5.046v-.869h4.023c0-.369-.074-.699-.222-.989a1.663 1.663 0 0 0-.622-.686 1.746 1.746 0 0 0-.946-.251c-.4 0-.747.099-1.039.298a1.96 1.96 0 0 0-.669.767 2.242 2.242 0 0 0-.235 1.014v.58c0 .494.085.913.256 1.257.173.341.413.601.72.78.307.176.663.264 1.07.264.264 0 .502-.037.715-.111a1.54 1.54 0 0 0 .559-.341c.156-.153.277-.344.362-.571l.972.273a2.171 2.171 0 0 1-.516.869 2.52 2.52 0 0 1-.895.58 3.325 3.325 0 0 1-1.197.204zm4.24-.136v-6.545h.971v.988h.068c.12-.324.336-.586.648-.788a1.906 1.906 0 0 1 1.057-.303 10.862 10.862 0 0 1 .528.017v1.023a3.308 3.308 0 0 0-.234-.038 2.292 2.292 0 0 0-.379-.03 1.79 1.79 0 0 0-.853.2 1.468 1.468 0 0 0-.801 1.334V242h-1.005zm6.924.136c-.591 0-1.109-.14-1.555-.422a2.863 2.863 0 0 1-1.04-1.18c-.247-.506-.371-1.097-.371-1.773 0-.681.124-1.277.371-1.785.25-.509.597-.904 1.04-1.185.446-.281.964-.422 1.555-.422s1.108.141 1.551.422a2.81 2.81 0 0 1 1.04 1.185c.25.508.375 1.104.375 1.785 0 .676-.125 1.267-.375 1.773a2.815 2.815 0 0 1-1.04 1.18c-.443.282-.96.422-1.551.422zm0-.903c.449 0 .819-.115 1.108-.345.29-.23.505-.533.644-.908a3.48 3.48 0 0 0 .209-1.219c0-.437-.07-.845-.209-1.223a2.063 2.063 0 0 0-.644-.916c-.289-.233-.659-.349-1.108-.349-.449 0-.818.116-1.108.349a2.07 2.07 0 0 0-.643.916 3.518 3.518 0 0 0-.209 1.223c0 .438.07.844.209 1.219.139.375.354.678.643.908.29.23.659.345 1.108.345zM82.557 474v-8.727h5.233v.937h-4.176v2.949h3.784v.938h-3.784V474h-1.057zm9.17.136c-.63 0-1.174-.139-1.632-.417a2.806 2.806 0 0 1-1.052-1.176c-.245-.506-.367-1.094-.367-1.765 0-.67.122-1.261.367-1.772.247-.515.59-.915 1.03-1.202.444-.29.961-.435 1.552-.435.34 0 .678.057 1.01.171.332.113.635.298.908.554.272.253.49.588.652 1.005.162.418.243.932.243 1.543v.426h-5.046v-.869h4.023a2.15 2.15 0 0 0-.222-.989 1.67 1.67 0 0 0-.622-.686 1.747 1.747 0 0 0-.946-.251c-.4 0-.747.099-1.04.298a1.96 1.96 0 0 0-.669.767 2.25 2.25 0 0 0-.234 1.014v.58c0 .494.085.913.255 1.257.174.341.414.601.72.78.308.176.664.264 1.07.264.264 0 .503-.037.716-.111a1.53 1.53 0 0 0 .558-.341 1.55 1.55 0 0 0 .363-.571l.971.273a2.156 2.156 0 0 1-.515.869 2.52 2.52 0 0 1-.895.58 3.326 3.326 0 0 1-1.198.204zm6.166.017c-.414 0-.79-.078-1.129-.234a1.94 1.94 0 0 1-.805-.686c-.2-.301-.299-.665-.299-1.091 0-.375.074-.679.222-.912.148-.236.345-.42.592-.554a3.12 3.12 0 0 1 .819-.298c.3-.068.603-.122.907-.162.398-.051.72-.09.968-.115.25-.029.431-.075.545-.141.117-.065.175-.179.175-.341v-.034c0-.42-.115-.747-.345-.98-.228-.233-.573-.349-1.036-.349-.48 0-.856.105-1.13.315-.272.21-.464.435-.574.673l-.955-.341c.17-.397.398-.707.682-.929.287-.224.6-.38.937-.468a3.89 3.89 0 0 1 1.006-.137 4 4 0 0 1 .724.077c.276.048.542.149.797.303.259.153.473.385.644.694.17.31.255.725.255 1.245V474h-1.005v-.886h-.051a1.77 1.77 0 0 1-.341.456c-.16.162-.371.299-.635.413-.264.114-.587.17-.968.17zm.154-.903c.398 0 .733-.078 1.006-.234a1.602 1.602 0 0 0 .835-1.385v-.921c-.043.051-.137.098-.282.141a4.63 4.63 0 0 1-.494.106 20.937 20.937 0 0 1-.963.128 3.89 3.89 0 0 0-.733.166 1.262 1.262 0 0 0-.545.337c-.137.148-.205.349-.205.605 0 .35.13.614.388.793.261.176.592.264.993.264zm7.529-5.795v.852h-3.392v-.852h3.392zm-2.404-1.569h1.006v6.239c0 .284.041.497.123.639a.645.645 0 0 0 .324.281c.134.046.275.069.422.069.111 0 .202-.006.273-.017l.17-.035.205.904a2.156 2.156 0 0 1-.75.119c-.284 0-.563-.061-.835-.183a1.659 1.659 0 0 1-.674-.558c-.176-.25-.264-.566-.264-.946v-6.512zm8.041 5.438v-3.869h1.006V474h-1.006v-1.108h-.068a2.146 2.146 0 0 1-.716.848c-.324.23-.733.345-1.227.345-.409 0-.773-.089-1.091-.268a1.885 1.885 0 0 1-.75-.818c-.182-.367-.273-.829-.273-1.385v-4.159h1.006v4.09c0 .478.134.858.401 1.143.27.284.613.426 1.031.426.25 0 .504-.064.763-.192.261-.128.48-.324.656-.588.179-.264.268-.601.268-1.01zm2.848 2.676v-6.545h.972v.988h.068c.119-.324.335-.586.648-.788a1.9 1.9 0 0 1 1.056-.303 10.785 10.785 0 0 1 .529.017v1.023a3.27 3.27 0 0 0-.235-.038 2.284 2.284 0 0 0-.379-.03c-.318 0-.602.067-.852.2a1.468 1.468 0 0 0-.801 1.334V474h-1.006zm7.01.136c-.631 0-1.175-.139-1.632-.417a2.81 2.81 0 0 1-1.053-1.176c-.244-.506-.366-1.094-.366-1.765 0-.67.122-1.261.366-1.772a2.89 2.89 0 0 1 1.032-1.202c.443-.29.96-.435 1.551-.435.341 0 .677.057 1.01.171.332.113.635.298.907.554.273.253.49.588.652 1.005.162.418.243.932.243 1.543v.426h-5.045v-.869h4.023c0-.369-.074-.699-.222-.989a1.67 1.67 0 0 0-.622-.686 1.749 1.749 0 0 0-.946-.251c-.401 0-.747.099-1.04.298a1.96 1.96 0 0 0-.669.767 2.254 2.254 0 0 0-.234 1.014v.58c0 .494.085.913.255 1.257.174.341.414.601.72.78.307.176.664.264 1.07.264.264 0 .503-.037.716-.111.216-.077.402-.19.558-.341.156-.153.277-.344.362-.571l.972.273a2.149 2.149 0 0 1-.516.869 2.502 2.502 0 0 1-.895.58 3.325 3.325 0 0 1-1.197.204zm12.251-5.216-.903.256a1.713 1.713 0 0 0-.251-.439 1.22 1.22 0 0 0-.444-.358c-.187-.093-.427-.14-.72-.14-.4 0-.734.092-1.001.277-.264.181-.396.413-.396.694 0 .25.09.448.272.593.182.144.466.265.853.362l.971.238c.585.142 1.021.36 1.308.652.287.29.431.664.431 1.121 0 .375-.108.71-.324 1.006a2.153 2.153 0 0 1-.895.699c-.384.17-.83.255-1.338.255-.668 0-1.22-.145-1.658-.434-.437-.29-.714-.713-.831-1.27l.955-.239c.091.352.263.617.515.793.256.176.59.264 1.002.264.469 0 .841-.099 1.116-.298.279-.202.418-.443.418-.725a.763.763 0 0 0-.239-.571c-.159-.156-.403-.272-.733-.349l-1.091-.256c-.599-.142-1.039-.362-1.321-.66-.278-.302-.417-.678-.417-1.13 0-.369.104-.696.311-.98a2.12 2.12 0 0 1 .856-.669 3.01 3.01 0 0 1 1.236-.243c.648 0 1.157.142 1.526.426.372.285.636.66.792 1.125zm4.378 5.216c-.631 0-1.175-.139-1.632-.417a2.803 2.803 0 0 1-1.053-1.176c-.244-.506-.366-1.094-.366-1.765 0-.67.122-1.261.366-1.772a2.883 2.883 0 0 1 1.032-1.202c.443-.29.96-.435 1.551-.435.341 0 .677.057 1.01.171.332.113.635.298.907.554.273.253.49.588.652 1.005.162.418.243.932.243 1.543v.426h-5.045v-.869h4.022c0-.369-.073-.699-.221-.989a1.67 1.67 0 0 0-.622-.686 1.749 1.749 0 0 0-.946-.251c-.401 0-.748.099-1.04.298a1.96 1.96 0 0 0-.669.767 2.255 2.255 0 0 0-.235 1.014v.58c0 .494.086.913.256 1.257.173.341.414.601.72.78.307.176.664.264 1.07.264.264 0 .503-.037.716-.111.216-.077.402-.19.558-.341.156-.153.277-.344.362-.571l.972.273a2.149 2.149 0 0 1-.516.869c-.241.247-.54.441-.895.58a3.325 3.325 0 0 1-1.197.204zm6.899 0c-.614 0-1.142-.145-1.585-.434a2.837 2.837 0 0 1-1.023-1.198c-.239-.508-.358-1.089-.358-1.743 0-.664.122-1.251.367-1.76.247-.511.591-.91 1.031-1.197.443-.29.96-.435 1.551-.435.46 0 .875.086 1.244.256.37.17.672.409.908.716s.382.665.439 1.074h-1.006a1.553 1.553 0 0 0-.511-.793c-.261-.233-.614-.349-1.057-.349-.392 0-.736.102-1.031.307a1.993 1.993 0 0 0-.686.856c-.162.367-.243.797-.243 1.291 0 .506.079.946.238 1.321.162.375.39.666.682.874.296.207.642.311 1.04.311.261 0 .499-.045.712-.136.213-.091.393-.222.541-.392.148-.171.253-.375.315-.614h1.006a2.34 2.34 0 0 1-.422 1.044 2.364 2.364 0 0 1-.882.733c-.364.179-.787.268-1.27.268zm6.891-6.681v.852h-3.392v-.852h3.392zm-2.404-1.569h1.006v6.239c0 .284.041.497.124.639a.64.64 0 0 0 .323.281c.134.046.275.069.422.069.111 0 .202-.006.273-.017l.17-.035.205.904a2.178 2.178 0 0 1-.75.119c-.284 0-.562-.061-.835-.183a1.659 1.659 0 0 1-.674-.558c-.176-.25-.264-.566-.264-.946v-6.512zm3.916 8.114v-6.545h1.006V474h-1.006zm.512-7.636a.713.713 0 0 1-.507-.201.643.643 0 0 1-.209-.481c0-.188.07-.348.209-.482a.717.717 0 0 1 .507-.2c.196 0 .363.067.503.2a.639.639 0 0 1 .213.482.636.636 0 0 1-.213.481.7.7 0 0 1-.503.201zm4.995 7.772c-.591 0-1.109-.14-1.555-.422a2.863 2.863 0 0 1-1.04-1.18c-.247-.506-.371-1.097-.371-1.773 0-.681.124-1.277.371-1.785.25-.509.597-.904 1.04-1.185.446-.281.964-.422 1.555-.422s1.108.141 1.551.422c.446.281.793.676 1.04 1.185.25.508.375 1.104.375 1.785 0 .676-.125 1.267-.375 1.773a2.822 2.822 0 0 1-1.04 1.18c-.443.282-.96.422-1.551.422zm0-.903c.449 0 .818-.115 1.108-.345.29-.23.504-.533.644-.908.139-.375.208-.781.208-1.219 0-.437-.069-.845-.208-1.223a2.071 2.071 0 0 0-.644-.916c-.29-.233-.659-.349-1.108-.349-.449 0-.818.116-1.108.349a2.07 2.07 0 0 0-.643.916 3.518 3.518 0 0 0-.209 1.223c0 .438.07.844.209 1.219.139.375.354.678.643.908.29.23.659.345 1.108.345zm5.507-3.171V474h-1.006v-6.545h.972v1.022h.085c.154-.332.386-.599.699-.801.312-.204.716-.307 1.21-.307.443 0 .831.091 1.164.273.332.179.59.452.775.818.185.364.277.824.277 1.381V474h-1.006v-4.091c0-.514-.133-.915-.4-1.202-.267-.289-.634-.434-1.1-.434-.321 0-.608.069-.86.209-.25.139-.448.342-.593.609-.145.267-.217.591-.217.971zM82.08 495.21v-.937h6.545v.937h-2.744V503h-1.057v-7.79h-2.745zm9.835 7.926c-.63 0-1.175-.139-1.632-.417a2.806 2.806 0 0 1-1.053-1.176c-.244-.506-.366-1.094-.366-1.765 0-.67.122-1.261.366-1.772a2.888 2.888 0 0 1 1.031-1.202c.444-.29.96-.435 1.552-.435a3.1 3.1 0 0 1 1.01.171c.332.113.634.298.907.554.273.253.49.588.652 1.005.162.418.243.932.243 1.543v.426h-5.046v-.869h4.023a2.15 2.15 0 0 0-.221-.989 1.67 1.67 0 0 0-.623-.686 1.747 1.747 0 0 0-.945-.251c-.401 0-.748.099-1.04.298a1.97 1.97 0 0 0-.67.767 2.25 2.25 0 0 0-.234 1.014v.58c0 .494.085.913.256 1.257.173.341.413.601.72.78.307.176.663.264 1.07.264.264 0 .503-.037.716-.111a1.53 1.53 0 0 0 .558-.341c.156-.153.277-.344.362-.571l.972.273a2.156 2.156 0 0 1-.516.869c-.241.247-.54.441-.895.58a3.326 3.326 0 0 1-1.197.204zm8.876-5.216-.903.256a1.686 1.686 0 0 0-.252-.439 1.222 1.222 0 0 0-.443-.358c-.187-.093-.427-.14-.72-.14-.4 0-.734.092-1.001.277-.265.181-.397.413-.397.694 0 .25.091.448.273.593.182.144.466.265.852.362l.972.238c.585.142 1.021.36 1.308.652.287.29.431.664.431 1.121 0 .375-.108.71-.324 1.006a2.159 2.159 0 0 1-.895.699c-.384.17-.83.255-1.338.255-.668 0-1.22-.145-1.658-.434-.438-.29-.715-.713-.83-1.27l.954-.239c.09.352.262.617.515.793.256.176.59.264 1.002.264.468 0 .84-.099 1.116-.298.278-.202.418-.443.418-.725a.762.762 0 0 0-.239-.571c-.159-.156-.403-.272-.733-.349l-1.09-.256c-.6-.142-1.04-.362-1.322-.66-.278-.302-.417-.678-.417-1.13 0-.369.103-.696.31-.98.21-.284.496-.507.857-.669a3.007 3.007 0 0 1 1.236-.243c.648 0 1.156.142 1.526.426.372.285.636.66.792 1.125zm4.48-1.465v.852h-3.392v-.852h3.392zm-2.403-1.569h1.005v6.239c0 .284.041.497.124.639a.637.637 0 0 0 .324.281c.133.046.274.069.422.069.11 0 .201-.006.272-.017l.171-.035.204.904a2.178 2.178 0 0 1-.75.119c-.284 0-.562-.061-.835-.183a1.656 1.656 0 0 1-.673-.558c-.176-.25-.264-.566-.264-.946v-6.512zm3.916 8.114v-6.545h1.005V503h-1.005zm.511-7.636a.713.713 0 0 1-.507-.201.643.643 0 0 1-.209-.481c0-.188.07-.348.209-.482a.717.717 0 0 1 .507-.2c.196 0 .364.067.503.2a.639.639 0 0 1 .213.482.636.636 0 0 1-.213.481.7.7 0 0 1-.503.201zm2.336 7.636v-6.545h.972v1.022h.085c.137-.349.357-.62.661-.814.304-.196.669-.294 1.095-.294.432 0 .791.098 1.078.294.29.194.516.465.678.814h.068c.167-.338.419-.606.754-.805.335-.202.737-.303 1.206-.303.585 0 1.064.184 1.436.55.372.364.558.93.558 1.7V503h-1.005v-4.381c0-.483-.132-.828-.397-1.035a1.462 1.462 0 0 0-.933-.311c-.46 0-.817.139-1.07.417-.252.276-.379.625-.379 1.049V503h-1.023v-4.483c0-.372-.12-.672-.362-.899-.241-.23-.552-.345-.933-.345-.261 0-.506.069-.733.209a1.576 1.576 0 0 0-.545.579 1.704 1.704 0 0 0-.205.848V503h-1.006zm13.089.136c-.591 0-1.109-.14-1.555-.422a2.863 2.863 0 0 1-1.04-1.18c-.247-.506-.371-1.097-.371-1.773 0-.681.124-1.277.371-1.785.25-.509.597-.904 1.04-1.185.446-.281.964-.422 1.555-.422s1.108.141 1.551.422c.446.281.793.676 1.04 1.185.25.508.375 1.104.375 1.785 0 .676-.125 1.267-.375 1.773a2.822 2.822 0 0 1-1.04 1.18c-.443.282-.96.422-1.551.422zm0-.903c.449 0 .818-.115 1.108-.345.29-.23.504-.533.644-.908.139-.375.208-.781.208-1.219 0-.437-.069-.845-.208-1.223a2.071 2.071 0 0 0-.644-.916c-.29-.233-.659-.349-1.108-.349-.449 0-.818.116-1.108.349-.29.233-.504.539-.643.916a3.518 3.518 0 0 0-.209 1.223c0 .438.07.844.209 1.219.139.375.353.678.643.908.29.23.659.345 1.108.345zm5.507-3.171V503h-1.006v-6.545h.972v1.022h.085c.153-.332.386-.599.699-.801.312-.204.716-.307 1.21-.307.443 0 .831.091 1.163.273.333.179.591.452.776.818.185.364.277.824.277 1.381V503h-1.006v-4.091c0-.514-.133-.915-.4-1.202-.267-.289-.634-.434-1.1-.434-.321 0-.608.069-.86.209-.25.139-.448.342-.593.609-.145.267-.217.591-.217.971zm6.014 3.938v-6.545h1.005V503h-1.005zm.511-7.636a.713.713 0 0 1-.507-.201.643.643 0 0 1-.209-.481c0-.188.07-.348.209-.482a.717.717 0 0 1 .507-.2c.196 0 .364.067.503.2a.639.639 0 0 1 .213.482.636.636 0 0 1-.213.481.7.7 0 0 1-.503.201zm4.263 7.789c-.415 0-.792-.078-1.13-.234a1.94 1.94 0 0 1-.805-.686c-.199-.301-.298-.665-.298-1.091 0-.375.073-.679.221-.912.148-.236.345-.42.593-.554.247-.133.519-.233.818-.298.301-.068.603-.122.907-.162.398-.051.721-.09.968-.115.25-.029.432-.075.545-.141.117-.065.175-.179.175-.341v-.034c0-.42-.115-.747-.345-.98-.228-.233-.573-.349-1.036-.349-.48 0-.856.105-1.129.315-.273.21-.465.435-.575.673l-.955-.341c.171-.397.398-.707.682-.929.287-.224.599-.38.937-.468a3.896 3.896 0 0 1 1.006-.137c.21 0 .452.026.725.077.275.048.541.149.796.303.259.153.473.385.644.694.17.31.256.725.256 1.245V503h-1.006v-.886h-.051a1.77 1.77 0 0 1-.341.456 1.973 1.973 0 0 1-.635.413c-.264.114-.587.17-.967.17zm.153-.903c.398 0 .733-.078 1.006-.234.275-.157.483-.358.622-.605.142-.248.213-.508.213-.78v-.921c-.043.051-.136.098-.281.141-.142.04-.307.075-.495.106a20.68 20.68 0 0 1-.963.128 3.91 3.91 0 0 0-.733.166 1.261 1.261 0 0 0-.545.337c-.137.148-.205.349-.205.605 0 .35.13.614.388.793.261.176.592.264.993.264zm5.688-7.977V503h-1.006v-8.727h1.006zm6.478 3.647-.903.256a1.689 1.689 0 0 0-.252-.439 1.217 1.217 0 0 0-.443-.358c-.187-.093-.427-.14-.72-.14-.401 0-.734.092-1.001.277-.265.181-.397.413-.397.694 0 .25.091.448.273.593.182.144.466.265.852.362l.972.238c.585.142 1.021.36 1.308.652.287.29.43.664.43 1.121 0 .375-.107.71-.323 1.006a2.16 2.16 0 0 1-.895.699c-.384.17-.83.255-1.338.255-.668 0-1.221-.145-1.658-.434-.438-.29-.714-.713-.831-1.27l.955-.239c.09.352.262.617.515.793.256.176.59.264 1.002.264.468 0 .841-.099 1.116-.298.279-.202.418-.443.418-.725a.763.763 0 0 0-.239-.571c-.159-.156-.403-.272-.733-.349l-1.091-.256c-.599-.142-1.04-.362-1.321-.66-.278-.302-.417-.678-.417-1.13 0-.369.103-.696.311-.98.21-.284.495-.507.856-.669a3.01 3.01 0 0 1 1.236-.243c.648 0 1.156.142 1.526.426.372.285.636.66.792 1.125zM82.557 532v-8.727h2.949c.684 0 1.244.123 1.679.37.437.245.761.576.971.993.21.418.316.884.316 1.398 0 .514-.105.982-.316 1.402a2.341 2.341 0 0 1-.963 1.006c-.434.247-.991.37-1.67.37h-2.114v-.937h2.08c.468 0 .845-.081 1.129-.243a1.45 1.45 0 0 0 .618-.656c.13-.279.196-.592.196-.942a2.17 2.17 0 0 0-.196-.937 1.396 1.396 0 0 0-.622-.648c-.287-.159-.668-.239-1.142-.239h-1.858V532h-1.057zm7.48 0v-6.545h.972v.988h.068c.12-.324.336-.586.648-.788a1.905 1.905 0 0 1 1.057-.303 10.848 10.848 0 0 1 .528.017v1.023a3.325 3.325 0 0 0-.234-.038c-.12-.02-.246-.03-.38-.03-.317 0-.602.067-.852.2a1.467 1.467 0 0 0-.801 1.334V532h-1.005zm4.465 0v-6.545h1.006V532h-1.005zm.512-7.636a.714.714 0 0 1-.507-.201.642.642 0 0 1-.21-.481c0-.188.07-.348.21-.482a.717.717 0 0 1 .507-.2c.196 0 .364.067.503.2a.639.639 0 0 1 .213.482.637.637 0 0 1-.213.481.699.699 0 0 1-.503.201zm4.995 7.772c-.613 0-1.142-.145-1.585-.434a2.832 2.832 0 0 1-1.023-1.198c-.238-.508-.358-1.089-.358-1.743 0-.664.122-1.251.367-1.76.247-.511.59-.91 1.031-1.197.443-.29.96-.435 1.551-.435.46 0 .875.086 1.245.256.369.17.671.409.907.716s.382.665.439 1.074h-1.006a1.553 1.553 0 0 0-.511-.793c-.261-.233-.614-.349-1.057-.349-.392 0-.736.102-1.031.307a1.995 1.995 0 0 0-.686.856c-.162.367-.243.797-.243 1.291 0 .506.08.946.239 1.321.162.375.389.666.681.874a1.77 1.77 0 0 0 1.04.311c.262 0 .499-.045.712-.136.213-.091.393-.222.541-.392.148-.171.253-.375.315-.614h1.006a2.329 2.329 0 0 1-1.304 1.777c-.364.179-.787.268-1.27.268zm4.044-.136v-6.545h1.006V532h-1.006zm.512-7.636a.713.713 0 0 1-.507-.201.64.64 0 0 1-.209-.481c0-.188.069-.348.209-.482a.717.717 0 0 1 .507-.2.7.7 0 0 1 .502.2.636.636 0 0 1 .214.482.634.634 0 0 1-.214.481.697.697 0 0 1-.502.201zm3.342 3.698V532h-1.006v-6.545h.972v1.022h.085c.153-.332.386-.599.699-.801.312-.204.716-.307 1.21-.307.443 0 .831.091 1.163.273.333.179.591.452.776.818.184.364.277.824.277 1.381V532h-1.006v-4.091c0-.514-.133-.915-.401-1.202-.267-.289-.633-.434-1.099-.434-.321 0-.608.069-.861.209-.25.139-.447.342-.592.609-.145.267-.217.591-.217.971zm8.655 6.529c-.485 0-.903-.063-1.252-.188a2.664 2.664 0 0 1-.874-.485 2.668 2.668 0 0 1-.55-.64l.802-.562c.09.119.205.256.345.409.139.156.329.291.571.405.244.116.564.175.958.175.529 0 .965-.128 1.309-.384.343-.256.515-.656.515-1.202v-1.329h-.085a5.56 5.56 0 0 1-.315.443 1.792 1.792 0 0 1-.58.464c-.25.134-.588.201-1.014.201a2.73 2.73 0 0 1-1.423-.375 2.628 2.628 0 0 1-.993-1.091c-.242-.477-.362-1.057-.362-1.739 0-.67.118-1.254.353-1.751.236-.5.564-.887.985-1.159.42-.276.906-.414 1.457-.414.426 0 .764.071 1.014.213.253.14.446.299.58.478.136.176.241.321.315.434h.102v-1.039h.972v6.733c0 .562-.128 1.019-.383 1.372a2.18 2.18 0 0 1-1.023.779 3.853 3.853 0 0 1-1.424.252zm-.034-3.597c.404 0 .745-.092 1.023-.277.279-.184.49-.45.635-.797.145-.346.217-.761.217-1.244 0-.471-.071-.888-.213-1.248a1.87 1.87 0 0 0-.63-.848c-.279-.205-.622-.307-1.032-.307-.426 0-.781.108-1.065.324a1.966 1.966 0 0 0-.635.869 3.366 3.366 0 0 0-.209 1.21c0 .455.071.857.213 1.206.145.347.358.619.64.818.284.196.636.294 1.056.294zM122.057 271v-8.727h1.057v3.886h4.653v-3.886h1.057V271h-1.057v-3.903h-4.653V271h-1.057zm11.491.136c-.631 0-1.175-.139-1.633-.417a2.808 2.808 0 0 1-1.052-1.176c-.244-.506-.367-1.094-.367-1.765 0-.67.123-1.261.367-1.772a2.888 2.888 0 0 1 1.031-1.202c.443-.29.96-.435 1.551-.435.341 0 .678.057 1.01.171.333.113.635.298.908.554.273.253.49.588.652 1.005.162.418.243.932.243 1.543v.426h-5.046v-.869h4.023c0-.369-.074-.699-.222-.989a1.663 1.663 0 0 0-.622-.686 1.746 1.746 0 0 0-.946-.251c-.4 0-.747.099-1.039.298a1.96 1.96 0 0 0-.669.767 2.242 2.242 0 0 0-.235 1.014v.58c0 .494.085.913.256 1.257.173.341.413.601.72.78.307.176.663.264 1.07.264.264 0 .502-.037.715-.111a1.54 1.54 0 0 0 .559-.341c.156-.153.277-.344.362-.571l.972.273a2.171 2.171 0 0 1-.516.869 2.52 2.52 0 0 1-.895.58 3.325 3.325 0 0 1-1.197.204zm6.166.017c-.415 0-.791-.078-1.129-.234a1.936 1.936 0 0 1-.806-.686c-.199-.301-.298-.665-.298-1.091 0-.375.074-.679.221-.912.148-.236.346-.42.593-.554a3.12 3.12 0 0 1 .818-.298 10.1 10.1 0 0 1 .908-.162c.397-.051.72-.09.967-.115.25-.029.432-.075.545-.141.117-.065.175-.179.175-.341v-.034c0-.42-.115-.747-.345-.98-.227-.233-.573-.349-1.036-.349-.48 0-.856.105-1.129.315-.273.21-.464.435-.575.673l-.955-.341c.171-.397.398-.707.682-.929.287-.224.6-.38.938-.468a3.888 3.888 0 0 1 1.005-.137c.211 0 .452.026.725.077.275.048.541.149.797.303.258.153.473.385.643.694.171.31.256.725.256 1.245V271h-1.006v-.886h-.051a1.77 1.77 0 0 1-.341.456 1.973 1.973 0 0 1-.635.413c-.264.114-.587.17-.967.17zm.153-.903c.398 0 .733-.078 1.006-.234.275-.157.483-.358.622-.605.142-.248.213-.508.213-.78v-.921c-.043.051-.136.098-.281.141a4.65 4.65 0 0 1-.494.106 21.368 21.368 0 0 1-.964.128 3.88 3.88 0 0 0-.732.166 1.259 1.259 0 0 0-.546.337c-.136.148-.204.349-.204.605 0 .35.129.614.387.793.262.176.593.264.993.264zm7.154.886c-.546 0-1.027-.137-1.445-.413-.417-.278-.744-.67-.98-1.176-.236-.509-.353-1.109-.353-1.803 0-.687.117-1.284.353-1.789.236-.506.564-.897.985-1.172.42-.276.906-.414 1.457-.414.426 0 .763.071 1.01.213.25.14.44.299.571.478.133.176.237.321.311.434h.085v-3.221h1.006V271h-.972v-1.006h-.119c-.074.12-.179.27-.315.452-.137.179-.331.34-.584.482-.253.139-.59.208-1.01.208zm.136-.903c.404 0 .745-.105 1.023-.315.278-.213.49-.507.635-.882.145-.378.217-.814.217-1.309 0-.488-.071-.916-.213-1.282a1.862 1.862 0 0 0-.63-.861c-.279-.208-.623-.311-1.032-.311-.426 0-.781.109-1.065.328-.281.216-.493.51-.635.882a3.51 3.51 0 0 0-.209 1.244c0 .466.071.889.213 1.27.145.378.358.679.639.904.285.221.637.332 1.057.332zm4.845.767v-6.545h1.006V271h-1.006zm.512-7.636a.713.713 0 0 1-.507-.201.643.643 0 0 1-.209-.481c0-.188.07-.348.209-.482a.717.717 0 0 1 .507-.2c.196 0 .363.067.503.2a.639.639 0 0 1 .213.482.636.636 0 0 1-.213.481.7.7 0 0 1-.503.201zm3.342 3.698V271h-1.006v-6.545h.972v1.022h.085c.153-.332.386-.599.699-.801.312-.204.716-.307 1.21-.307.443 0 .831.091 1.163.273.333.179.591.452.776.818.185.364.277.824.277 1.381V271h-1.006v-4.091c0-.514-.133-.915-.4-1.202-.267-.289-.634-.434-1.1-.434-.321 0-.608.069-.861.209-.25.139-.447.342-.592.609-.145.267-.217.591-.217.971zm8.656 6.529c-.486 0-.904-.063-1.253-.188a2.664 2.664 0 0 1-.874-.485 2.64 2.64 0 0 1-.549-.64l.801-.562c.091.119.206.256.345.409.139.156.329.291.571.405.244.116.564.175.959.175.528 0 .964-.128 1.308-.384.344-.256.516-.656.516-1.202v-1.329h-.086a5.56 5.56 0 0 1-.315.443 1.792 1.792 0 0 1-.58.464c-.25.134-.588.201-1.014.201a2.73 2.73 0 0 1-1.423-.375 2.628 2.628 0 0 1-.993-1.091c-.241-.477-.362-1.057-.362-1.739 0-.67.118-1.254.354-1.751.235-.5.563-.887.984-1.159.42-.276.906-.414 1.457-.414.426 0 .765.071 1.015.213.252.14.446.299.579.478.136.176.242.321.315.434h.103v-1.039h.971v6.733c0 .562-.128 1.019-.383 1.372a2.18 2.18 0 0 1-1.023.779 3.851 3.851 0 0 1-1.423.252zm-.034-3.597c.403 0 .744-.092 1.022-.277.279-.184.49-.45.635-.797.145-.346.218-.761.218-1.244 0-.471-.071-.888-.213-1.248a1.872 1.872 0 0 0-.631-.848c-.279-.205-.622-.307-1.031-.307-.427 0-.782.108-1.066.324a1.966 1.966 0 0 0-.635.869 3.366 3.366 0 0 0-.208 1.21c0 .455.071.857.213 1.206.144.347.358.619.639.818.284.196.636.294 1.057.294zm-37.648 23.461a1.341 1.341 0 0 0-.623-1.006c-.363-.239-.809-.358-1.338-.358-.386 0-.724.062-1.014.187a1.617 1.617 0 0 0-.673.516 1.237 1.237 0 0 0-.239.746c0 .233.056.433.166.601.114.164.259.302.435.413.176.108.361.197.554.268.193.069.371.124.533.167l.886.238c.227.06.48.142.759.247.281.106.549.249.805.431.258.179.472.409.639.69.168.281.252.627.252 1.036a2.3 2.3 0 0 1-.371 1.278c-.244.381-.602.683-1.074.908-.469.224-1.038.336-1.709.336-.625 0-1.166-.1-1.623-.302a2.583 2.583 0 0 1-1.074-.844 2.404 2.404 0 0 1-.439-1.257h1.091c.028.33.139.602.332.818.196.213.443.372.742.477.301.103.625.154.971.154.404 0 .766-.065 1.087-.196.321-.134.575-.318.763-.554.187-.239.281-.517.281-.835 0-.29-.081-.526-.243-.708a1.786 1.786 0 0 0-.639-.443 6.614 6.614 0 0 0-.857-.298l-1.074-.307c-.681-.196-1.221-.476-1.619-.84-.398-.363-.597-.839-.597-1.427 0-.489.133-.915.397-1.279.267-.366.625-.65 1.074-.852a3.632 3.632 0 0 1 1.512-.307c.563 0 1.063.101 1.5.303.438.199.785.472 1.04.818.259.347.395.74.409 1.181h-1.022zm6.868 3.869v-3.869h1.005V300h-1.005v-1.108h-.068a2.154 2.154 0 0 1-.716.848c-.324.23-.733.345-1.228.345-.409 0-.772-.089-1.09-.268a1.873 1.873 0 0 1-.75-.818c-.182-.367-.273-.829-.273-1.385v-4.159h1.005v4.09c0 .478.134.858.401 1.143.27.284.614.426 1.031.426.25 0 .505-.064.763-.192.261-.128.48-.324.656-.588.179-.264.269-.601.269-1.01zm2.847 5.131v-9h.972v1.039h.119c.074-.113.177-.258.307-.434.134-.179.324-.338.571-.478.25-.142.588-.213 1.014-.213.552 0 1.037.138 1.458.414.42.275.748.666.984 1.172.236.505.354 1.102.354 1.789 0 .694-.118 1.294-.354 1.803-.236.506-.562.898-.98 1.176-.418.276-.899.413-1.445.413-.42 0-.757-.069-1.009-.208a1.867 1.867 0 0 1-.584-.482 6.21 6.21 0 0 1-.316-.452h-.085v3.461h-1.006zm.989-5.728c0 .495.073.931.217 1.309.145.375.357.669.635.882.279.21.62.315 1.023.315.421 0 .771-.111 1.053-.332.284-.225.497-.526.639-.904.145-.381.217-.804.217-1.27 0-.46-.071-.875-.213-1.244a1.923 1.923 0 0 0-.635-.882c-.281-.219-.635-.328-1.061-.328-.409 0-.753.103-1.031.311-.279.204-.489.491-.631.861-.142.366-.213.794-.213 1.282zm6.324 5.728v-9h.972v1.039h.119a9.15 9.15 0 0 1 .307-.434c.133-.179.324-.338.571-.478.25-.142.588-.213 1.014-.213.551 0 1.037.138 1.457.414.421.275.749.666.985 1.172.235.505.353 1.102.353 1.789 0 .694-.118 1.294-.353 1.803-.236.506-.563.898-.98 1.176-.418.276-.9.413-1.445.413-.42 0-.757-.069-1.01-.208a1.878 1.878 0 0 1-.584-.482 6.475 6.475 0 0 1-.315-.452h-.085v3.461h-1.006zm.989-5.728c0 .495.072.931.217 1.309.145.375.356.669.635.882.278.21.619.315 1.023.315.42 0 .771-.111 1.052-.332.284-.225.497-.526.639-.904.145-.381.218-.804.218-1.27 0-.46-.071-.875-.213-1.244a1.93 1.93 0 0 0-.635-.882c-.282-.219-.635-.328-1.061-.328-.409 0-.753.103-1.032.311a1.862 1.862 0 0 0-.63.861c-.142.366-.213.794-.213 1.282zm8.983 3.409c-.591 0-1.11-.14-1.556-.422a2.863 2.863 0 0 1-1.04-1.18c-.247-.506-.37-1.097-.37-1.773 0-.681.123-1.277.37-1.785.25-.509.597-.904 1.04-1.185.446-.281.965-.422 1.556-.422.59 0 1.108.141 1.551.422.446.281.792.676 1.039 1.185.25.508.375 1.104.375 1.785 0 .676-.125 1.267-.375 1.773a2.82 2.82 0 0 1-1.039 1.18c-.443.282-.961.422-1.551.422zm0-.903c.448 0 .818-.115 1.108-.345.289-.23.504-.533.643-.908a3.48 3.48 0 0 0 .209-1.219c0-.437-.07-.845-.209-1.223a2.07 2.07 0 0 0-.643-.916c-.29-.233-.66-.349-1.108-.349-.449 0-.819.116-1.108.349-.29.233-.505.539-.644.916a3.518 3.518 0 0 0-.209 1.223c0 .438.07.844.209 1.219.139.375.354.678.644.908.289.23.659.345 1.108.345zm4.501.767v-6.545h.971v.988h.068c.12-.324.336-.586.648-.788a1.906 1.906 0 0 1 1.057-.303 10.862 10.862 0 0 1 .528.017v1.023a3.308 3.308 0 0 0-.234-.038 2.292 2.292 0 0 0-.379-.03 1.79 1.79 0 0 0-.853.2 1.468 1.468 0 0 0-.801 1.334V300h-1.005zm7.721-6.545v.852h-3.392v-.852h3.392zm-2.403-1.569h1.005v6.239c0 .284.042.497.124.639a.637.637 0 0 0 .324.281c.133.046.274.069.422.069.111 0 .201-.006.273-.017l.17-.035.205.904a2.246 2.246 0 0 1-.75.119c-.285 0-.563-.061-.836-.183a1.656 1.656 0 0 1-.673-.558c-.176-.25-.264-.566-.264-.946v-6.512zm3.916 8.114v-6.545h1.006V300h-1.006zm.511-7.636a.713.713 0 0 1-.507-.201.643.643 0 0 1-.209-.481c0-.188.07-.348.209-.482a.717.717 0 0 1 .507-.2c.196 0 .364.067.503.2a.639.639 0 0 1 .213.482.636.636 0 0 1-.213.481.7.7 0 0 1-.503.201zm3.342 3.698V300h-1.005v-6.545h.971v1.022h.085a1.88 1.88 0 0 1 .699-.801c.313-.204.716-.307 1.211-.307.443 0 .831.091 1.163.273.332.179.591.452.775.818.185.364.277.824.277 1.381V300h-1.005v-4.091c0-.514-.134-.915-.401-1.202-.267-.289-.633-.434-1.099-.434-.321 0-.608.069-.861.209-.25.139-.447.342-.592.609-.145.267-.218.591-.218.971zm8.656 6.529c-.486 0-.903-.063-1.253-.188a2.669 2.669 0 0 1-.873-.485 2.646 2.646 0 0 1-.55-.64l.801-.562c.091.119.206.256.345.409.14.156.33.291.571.405.245.116.564.175.959.175.529 0 .965-.128 1.308-.384.344-.256.516-.656.516-1.202v-1.329h-.085a5.56 5.56 0 0 1-.315.443 1.792 1.792 0 0 1-.58.464c-.25.134-.588.201-1.014.201a2.734 2.734 0 0 1-1.424-.375 2.633 2.633 0 0 1-.992-1.091c-.242-.477-.363-1.057-.363-1.739 0-.67.118-1.254.354-1.751.236-.5.564-.887.984-1.159.421-.276.907-.414 1.458-.414.426 0 .764.071 1.014.213.253.14.446.299.58.478.136.176.241.321.315.434h.102v-1.039h.972v6.733c0 .562-.128 1.019-.384 1.372a2.182 2.182 0 0 1-1.022.779 3.857 3.857 0 0 1-1.424.252zm-.034-3.597c.404 0 .744-.092 1.023-.277.278-.184.49-.45.635-.797.145-.346.217-.761.217-1.244 0-.471-.071-.888-.213-1.248a1.865 1.865 0 0 0-.631-.848c-.278-.205-.622-.307-1.031-.307-.426 0-.781.108-1.065.324a1.966 1.966 0 0 0-.635.869 3.366 3.366 0 0 0-.209 1.21c0 .455.071.857.213 1.206.145.347.358.619.639.818.284.196.637.294 1.057.294zm10.926-5.539v.852h-3.392v-.852h3.392zm-2.403-1.569h1.006v6.239c0 .284.041.497.123.639a.637.637 0 0 0 .324.281c.134.046.274.069.422.069.111 0 .202-.006.273-.017l.17-.035.205.904a2.246 2.246 0 0 1-.75.119c-.285 0-.563-.061-.836-.183a1.656 1.656 0 0 1-.673-.558c-.176-.25-.264-.566-.264-.946v-6.512zm6.59 8.25c-.631 0-1.175-.139-1.632-.417a2.81 2.81 0 0 1-1.053-1.176c-.244-.506-.366-1.094-.366-1.765 0-.67.122-1.261.366-1.772a2.89 2.89 0 0 1 1.032-1.202c.443-.29.96-.435 1.551-.435.341 0 .677.057 1.01.171.332.113.635.298.907.554.273.253.49.588.652 1.005.162.418.243.932.243 1.543v.426h-5.045v-.869h4.023c0-.369-.074-.699-.222-.989a1.67 1.67 0 0 0-.622-.686 1.749 1.749 0 0 0-.946-.251c-.401 0-.747.099-1.04.298a1.96 1.96 0 0 0-.669.767 2.254 2.254 0 0 0-.234 1.014v.58c0 .494.085.913.255 1.257.174.341.414.601.72.78.307.176.664.264 1.07.264.264 0 .503-.037.716-.111.216-.077.402-.19.558-.341.156-.153.277-.344.362-.571l.972.273a2.149 2.149 0 0 1-.516.869 2.502 2.502 0 0 1-.895.58 3.325 3.325 0 0 1-1.197.204zm4.814-6.681 1.569 2.676 1.568-2.676h1.159l-2.114 3.272 2.114 3.273h-1.159l-1.568-2.54-1.569 2.54h-1.159l2.08-3.273-2.08-3.272h1.159zm8.577 0v.852h-3.392v-.852h3.392zm-2.403-1.569h1.006v6.239c0 .284.041.497.123.639a.637.637 0 0 0 .324.281c.134.046.274.069.422.069.111 0 .202-.006.273-.017l.17-.035.205.904a2.2 2.2 0 0 1-.75.119c-.284 0-.563-.061-.836-.183a1.662 1.662 0 0 1-.673-.558c-.176-.25-.264-.566-.264-.946v-6.512zm-96.164-87.613V213h-1.022l-4.756-6.852h-.085V213h-1.057v-8.727h1.023l4.772 6.869h.086v-6.869h1.039zm3.905 8.88c-.415 0-.791-.078-1.13-.234a1.94 1.94 0 0 1-.805-.686c-.199-.301-.298-.665-.298-1.091 0-.375.074-.679.221-.912.148-.236.346-.42.593-.554a3.12 3.12 0 0 1 .818-.298 10.1 10.1 0 0 1 .908-.162c.397-.051.72-.09.967-.115.25-.029.432-.075.545-.141.117-.065.175-.179.175-.341v-.034c0-.42-.115-.747-.345-.98-.227-.233-.573-.349-1.036-.349-.48 0-.856.105-1.129.315-.273.21-.464.435-.575.673l-.955-.341c.171-.397.398-.707.682-.929.287-.224.6-.38.938-.468a3.888 3.888 0 0 1 1.005-.137c.211 0 .452.026.725.077.275.048.541.149.797.303.258.153.473.385.643.694.171.31.256.725.256 1.245V213h-1.006v-.886h-.051a1.77 1.77 0 0 1-.341.456 1.973 1.973 0 0 1-.635.413c-.264.114-.587.17-.967.17zm.153-.903c.398 0 .733-.078 1.006-.234.275-.157.483-.358.622-.605.142-.248.213-.508.213-.78v-.921c-.043.051-.136.098-.281.141-.142.04-.307.075-.495.106a20.68 20.68 0 0 1-.963.128 3.91 3.91 0 0 0-.733.166 1.261 1.261 0 0 0-.545.337c-.136.148-.205.349-.205.605 0 .35.13.614.388.793.262.176.593.264.993.264zm9.8-5.795-2.42 6.545h-1.023l-2.42-6.545h1.09l1.807 5.215h.069l1.806-5.215h1.091zM123.057 329v-8.727h3.051c.608 0 1.109.105 1.504.315.395.207.689.487.882.84.194.349.29.737.29 1.163 0 .375-.067.685-.2.929a1.56 1.56 0 0 1-.52.579 2.365 2.365 0 0 1-.695.316v.085c.267.017.536.111.806.281.27.171.495.415.677.733.182.318.273.708.273 1.168 0 .437-.099.831-.298 1.18-.199.35-.513.627-.942.831-.429.205-.987.307-1.675.307h-3.153zm1.057-.938h2.096c.691 0 1.181-.133 1.47-.4.293-.27.439-.597.439-.98a1.55 1.55 0 0 0-.226-.818 1.627 1.627 0 0 0-.643-.605c-.278-.154-.608-.231-.989-.231h-2.147v3.034zm0-3.954h1.96c.318 0 .605-.063.861-.188.258-.125.463-.301.613-.528.154-.227.23-.494.23-.801 0-.384-.133-.709-.4-.976-.267-.27-.69-.405-1.27-.405h-1.994v2.898zm10.736 2.216v-3.869h1.006V329h-1.006v-1.108h-.068a2.146 2.146 0 0 1-.716.848c-.324.23-.733.345-1.227.345-.409 0-.773-.089-1.091-.268a1.885 1.885 0 0 1-.75-.818c-.182-.367-.273-.829-.273-1.385v-4.159h1.006v4.09c0 .478.133.858.4 1.143.27.284.614.426 1.032.426.25 0 .504-.064.762-.192.262-.128.481-.324.657-.588.179-.264.268-.601.268-1.01zm5.694-3.869v.852h-3.392v-.852h3.392zm-2.403-1.569h1.006v6.239c0 .284.041.497.123.639a.637.637 0 0 0 .324.281c.134.046.274.069.422.069.111 0 .202-.006.273-.017l.17-.035.205.904a2.2 2.2 0 0 1-.75.119c-.284 0-.563-.061-.836-.183a1.662 1.662 0 0 1-.673-.558c-.176-.25-.264-.566-.264-.946v-6.512zm6.763 1.569v.852h-3.392v-.852h3.392zm-2.404-1.569h1.006v6.239c0 .284.041.497.124.639a.64.64 0 0 0 .323.281c.134.046.275.069.422.069.111 0 .202-.006.273-.017l.171-.035.204.904a2.178 2.178 0 0 1-.75.119c-.284 0-.562-.061-.835-.183a1.656 1.656 0 0 1-.673-.558c-.177-.25-.265-.566-.265-.946v-6.512zm6.505 8.25c-.591 0-1.109-.14-1.555-.422a2.863 2.863 0 0 1-1.04-1.18c-.247-.506-.371-1.097-.371-1.773 0-.681.124-1.277.371-1.785.25-.509.597-.904 1.04-1.185.446-.281.964-.422 1.555-.422s1.108.141 1.551.422c.446.281.793.676 1.04 1.185.25.508.375 1.104.375 1.785 0 .676-.125 1.267-.375 1.773a2.822 2.822 0 0 1-1.04 1.18c-.443.282-.96.422-1.551.422zm0-.903c.449 0 .819-.115 1.108-.345.29-.23.505-.533.644-.908a3.48 3.48 0 0 0 .209-1.219c0-.437-.07-.845-.209-1.223a2.063 2.063 0 0 0-.644-.916c-.289-.233-.659-.349-1.108-.349-.449 0-.818.116-1.108.349a2.07 2.07 0 0 0-.643.916 3.518 3.518 0 0 0-.209 1.223c0 .438.07.844.209 1.219.139.375.354.678.643.908.29.23.659.345 1.108.345zm5.507-3.171V329h-1.006v-6.545h.972v1.022h.085a1.88 1.88 0 0 1 .699-.801c.313-.204.716-.307 1.21-.307.443 0 .831.091 1.164.273.332.179.591.452.775.818.185.364.277.824.277 1.381V329h-1.005v-4.091c0-.514-.134-.915-.401-1.202-.267-.289-.634-.434-1.099-.434-.321 0-.608.069-.861.209-.25.139-.448.342-.593.609-.144.267-.217.591-.217.971zM83.057 561v-8.727h5.233v.937h-4.176v2.949h3.784v.938h-3.784V561h-1.057zm9.085.136c-.59 0-1.11-.14-1.555-.422a2.862 2.862 0 0 1-1.04-1.18c-.247-.506-.37-1.097-.37-1.773 0-.681.123-1.277.37-1.785.25-.509.597-.904 1.04-1.185.446-.281.964-.422 1.555-.422s1.108.141 1.551.422c.446.281.793.676 1.04 1.185.25.508.375 1.104.375 1.785 0 .676-.125 1.267-.375 1.773a2.823 2.823 0 0 1-1.04 1.18c-.443.282-.96.422-1.551.422zm0-.903c.449 0 .818-.115 1.108-.345.29-.23.504-.533.644-.908.139-.375.208-.781.208-1.219 0-.437-.07-.845-.209-1.223a2.065 2.065 0 0 0-.643-.916c-.29-.233-.66-.349-1.108-.349-.449 0-.818.116-1.108.349-.29.233-.504.539-.643.916-.14.378-.21.786-.21 1.223 0 .438.07.844.21 1.219.139.375.353.678.643.908.29.23.66.345 1.108.345zm7.16.903c-.59 0-1.11-.14-1.555-.422a2.861 2.861 0 0 1-1.04-1.18c-.247-.506-.37-1.097-.37-1.773 0-.681.123-1.277.37-1.785.25-.509.597-.904 1.04-1.185.446-.281.964-.422 1.555-.422s1.108.141 1.551.422c.446.281.793.676 1.04 1.185.25.508.375 1.104.375 1.785 0 .676-.125 1.267-.375 1.773a2.822 2.822 0 0 1-1.04 1.18c-.443.282-.96.422-1.55.422zm0-.903c.45 0 .818-.115 1.108-.345.29-.23.504-.533.644-.908.139-.375.208-.781.208-1.219 0-.437-.069-.845-.208-1.223a2.071 2.071 0 0 0-.644-.916c-.29-.233-.659-.349-1.108-.349-.449 0-.818.116-1.108.349-.29.233-.504.539-.643.916-.14.378-.209.786-.209 1.223 0 .438.07.844.209 1.219.139.375.353.678.643.908.29.23.66.345 1.108.345zm7.348-5.778v.852h-3.392v-.852h3.392zm-2.404-1.569h1.006v6.239c0 .284.041.497.124.639a.637.637 0 0 0 .324.281c.133.046.274.069.421.069.111 0 .202-.006.273-.017l.171-.035.204.904a2.178 2.178 0 0 1-.75.119c-.284 0-.562-.061-.835-.183a1.656 1.656 0 0 1-.673-.558c-.176-.25-.265-.566-.265-.946v-6.512zm6.591 8.25c-.631 0-1.175-.139-1.632-.417a2.803 2.803 0 0 1-1.053-1.176c-.244-.506-.366-1.094-.366-1.765 0-.67.122-1.261.366-1.772a2.888 2.888 0 0 1 1.031-1.202c.443-.29.96-.435 1.551-.435.341 0 .678.057 1.01.171.333.113.635.298.908.554.273.253.49.588.652 1.005.162.418.243.932.243 1.543v.426h-5.046v-.869h4.023c0-.369-.074-.699-.221-.989a1.673 1.673 0 0 0-.623-.686 1.746 1.746 0 0 0-.946-.251c-.4 0-.747.099-1.039.298a1.96 1.96 0 0 0-.669.767 2.242 2.242 0 0 0-.235 1.014v.58c0 .494.085.913.256 1.257.173.341.413.601.72.78.307.176.663.264 1.07.264.264 0 .502-.037.716-.111.215-.077.402-.19.558-.341.156-.153.277-.344.362-.571l.972.273a2.171 2.171 0 0 1-.516.869c-.241.247-.54.441-.895.58a3.325 3.325 0 0 1-1.197.204zm4.24-.136v-6.545h.971v.988h.068c.12-.324.336-.586.648-.788a1.906 1.906 0 0 1 1.057-.303 10.862 10.862 0 0 1 .528.017v1.023a3.308 3.308 0 0 0-.234-.038 2.292 2.292 0 0 0-.379-.03c-.318 0-.602.067-.852.2a1.468 1.468 0 0 0-.802 1.334V561h-1.005zm29.037-153.727V416h-1.057v-8.727h1.057zm4.641 8.863c-.613 0-1.142-.145-1.585-.434a2.837 2.837 0 0 1-1.023-1.198c-.238-.508-.358-1.089-.358-1.743 0-.664.123-1.251.367-1.76.247-.511.591-.91 1.031-1.197.443-.29.96-.435 1.551-.435.461 0 .875.086 1.245.256.369.17.671.409.907.716s.382.665.439 1.074h-1.005a1.562 1.562 0 0 0-.512-.793c-.261-.233-.613-.349-1.057-.349-.392 0-.735.102-1.031.307a1.993 1.993 0 0 0-.686.856c-.162.367-.243.797-.243 1.291 0 .506.08.946.239 1.321.162.375.389.666.682.874.295.207.642.311 1.039.311.262 0 .499-.045.712-.136.213-.091.393-.222.541-.392.148-.171.253-.375.316-.614h1.005a2.329 2.329 0 0 1-1.304 1.777c-.363.179-.787.268-1.27.268zm6.703 0c-.59 0-1.109-.14-1.555-.422a2.863 2.863 0 0 1-1.04-1.18c-.247-.506-.37-1.097-.37-1.773 0-.681.123-1.277.37-1.785.25-.509.597-.904 1.04-1.185.446-.281.965-.422 1.555-.422.591 0 1.108.141 1.552.422.446.281.792.676 1.039 1.185.25.508.375 1.104.375 1.785 0 .676-.125 1.267-.375 1.773a2.82 2.82 0 0 1-1.039 1.18c-.444.282-.961.422-1.552.422zm0-.903c.449 0 .819-.115 1.108-.345.29-.23.505-.533.644-.908a3.48 3.48 0 0 0 .209-1.219c0-.437-.07-.845-.209-1.223a2.063 2.063 0 0 0-.644-.916c-.289-.233-.659-.349-1.108-.349-.448 0-.818.116-1.108.349a2.07 2.07 0 0 0-.643.916 3.518 3.518 0 0 0-.209 1.223c0 .438.07.844.209 1.219.139.375.354.678.643.908.29.23.66.345 1.108.345zm5.507-3.171V416h-1.005v-6.545h.971v1.022h.085a1.88 1.88 0 0 1 .699-.801c.313-.204.716-.307 1.21-.307.444 0 .831.091 1.164.273.332.179.591.452.775.818.185.364.277.824.277 1.381V416h-1.005v-4.091c0-.514-.134-.915-.401-1.202-.267-.289-.633-.434-1.099-.434-.321 0-.608.069-.861.209-.25.139-.448.342-.592.609-.145.267-.218.591-.218.971zM123.415 358h-1.108l3.204-8.727h1.091l3.205 8.727h-1.108l-2.608-7.347h-.068L123.415 358zm.409-3.409h4.466v.937h-4.466v-.937zm11.842-1.671-.903.256a1.689 1.689 0 0 0-.252-.439 1.217 1.217 0 0 0-.443-.358c-.187-.093-.427-.14-.72-.14-.401 0-.734.092-1.001.277-.265.181-.397.413-.397.694 0 .25.091.448.273.593.182.144.466.265.852.362l.972.238c.585.142 1.021.36 1.308.652.287.29.431.664.431 1.121 0 .375-.108.71-.324 1.006a2.16 2.16 0 0 1-.895.699c-.384.17-.83.255-1.338.255-.668 0-1.22-.145-1.658-.434-.437-.29-.714-.713-.831-1.27l.955-.239c.091.352.262.617.515.793.256.176.59.264 1.002.264.468 0 .841-.099 1.116-.298.279-.202.418-.443.418-.725a.763.763 0 0 0-.239-.571c-.159-.156-.403-.272-.733-.349l-1.091-.256c-.599-.142-1.04-.362-1.321-.66-.278-.302-.417-.678-.417-1.13 0-.369.103-.696.311-.98.21-.284.495-.507.856-.669a3.01 3.01 0 0 1 1.236-.243c.648 0 1.156.142 1.526.426.372.285.636.66.792 1.125zm6.27 0-.904.256a1.684 1.684 0 0 0-.251-.439 1.226 1.226 0 0 0-.443-.358c-.188-.093-.428-.14-.72-.14-.401 0-.735.092-1.002.277-.264.181-.396.413-.396.694 0 .25.091.448.273.593.181.144.465.265.852.362l.971.238c.586.142 1.022.36 1.309.652.287.29.43.664.43 1.121 0 .375-.108.71-.324 1.006a2.153 2.153 0 0 1-.895.699c-.383.17-.829.255-1.338.255-.667 0-1.22-.145-1.657-.434-.438-.29-.715-.713-.831-1.27l.954-.239c.091.352.263.617.516.793.255.176.589.264 1.001.264.469 0 .841-.099 1.117-.298.278-.202.417-.443.417-.725a.762.762 0 0 0-.238-.571c-.159-.156-.404-.272-.733-.349l-1.091-.256c-.6-.142-1.04-.362-1.321-.66-.279-.302-.418-.678-.418-1.13 0-.369.104-.696.311-.98.21-.284.496-.507.857-.669a3.003 3.003 0 0 1 1.236-.243c.647 0 1.156.142 1.525.426.372.285.636.66.793 1.125zm4.377 5.216c-.63 0-1.175-.139-1.632-.417a2.808 2.808 0 0 1-1.052-1.176c-.245-.506-.367-1.094-.367-1.765 0-.67.122-1.261.367-1.772.247-.515.59-.915 1.031-1.202.443-.29.96-.435 1.551-.435.341 0 .677.057 1.01.171.332.113.635.298.908.554.272.253.49.588.652 1.005.161.418.242.932.242 1.543v.426h-5.045v-.869h4.023c0-.369-.074-.699-.222-.989a1.67 1.67 0 0 0-.622-.686 1.746 1.746 0 0 0-.946-.251c-.401 0-.747.099-1.04.298a1.96 1.96 0 0 0-.669.767 2.254 2.254 0 0 0-.234 1.014v.58c0 .494.085.913.255 1.257.174.341.414.601.721.78.306.176.663.264 1.069.264.264 0 .503-.037.716-.111.216-.077.402-.19.558-.341a1.55 1.55 0 0 0 .363-.571l.971.273a2.158 2.158 0 0 1-.515.869 2.52 2.52 0 0 1-.895.58 3.33 3.33 0 0 1-1.198.204zm7.087-6.681v.852h-3.392v-.852h3.392zm-2.404-1.569h1.006v6.239c0 .284.041.497.124.639a.637.637 0 0 0 .324.281c.133.046.274.069.421.069.111 0 .202-.006.273-.017l.171-.035.204.904a2.178 2.178 0 0 1-.75.119c-.284 0-.562-.061-.835-.183a1.656 1.656 0 0 1-.673-.558c-.176-.25-.265-.566-.265-.946v-6.512zm-6.882 86.387V445h-1.057v-8.727h1.057zm1.982 8.727v-6.545h.972v1.022h.085a1.65 1.65 0 0 1 .661-.814c.304-.196.669-.294 1.095-.294.432 0 .791.098 1.078.294.29.194.515.465.677.814h.069c.167-.338.419-.606.754-.805.335-.202.737-.303 1.206-.303.585 0 1.064.184 1.436.55.372.364.558.93.558 1.7V445h-1.006v-4.381c0-.483-.132-.828-.396-1.035a1.462 1.462 0 0 0-.933-.311c-.46 0-.817.139-1.07.417-.253.276-.379.625-.379 1.049V445h-1.023v-4.483c0-.372-.12-.672-.362-.899-.241-.23-.552-.345-.933-.345-.261 0-.506.069-.733.209a1.578 1.578 0 0 0-.546.579 1.714 1.714 0 0 0-.204.848V445h-1.006zm12.356.153c-.415 0-.791-.078-1.129-.234a1.942 1.942 0 0 1-.806-.686c-.198-.301-.298-.665-.298-1.091 0-.375.074-.679.222-.912.147-.236.345-.42.592-.554a3.12 3.12 0 0 1 .818-.298 10.1 10.1 0 0 1 .908-.162c.398-.051.72-.09.967-.115.25-.029.432-.075.546-.141.116-.065.174-.179.174-.341v-.034c0-.42-.115-.747-.345-.98-.227-.233-.572-.349-1.035-.349-.48 0-.857.105-1.13.315-.272.21-.464.435-.575.673l-.954-.341c.17-.397.397-.707.681-.929.287-.224.6-.38.938-.468a3.89 3.89 0 0 1 1.006-.137 4 4 0 0 1 .724.077c.276.048.541.149.797.303.258.153.473.385.643.694.171.31.256.725.256 1.245V445h-1.006v-.886h-.051a1.77 1.77 0 0 1-.341.456c-.159.162-.37.299-.635.413-.264.114-.586.17-.967.17zm.153-.903c.398 0 .733-.078 1.006-.234a1.597 1.597 0 0 0 .835-1.385v-.921c-.042.051-.136.098-.281.141a4.65 4.65 0 0 1-.494.106 21.302 21.302 0 0 1-.963.128c-.262.034-.506.09-.733.166a1.265 1.265 0 0 0-.546.337c-.136.148-.204.349-.204.605 0 .35.129.614.388.793.261.176.592.264.992.264zm7.325 3.341c-.486 0-.904-.063-1.253-.188a2.664 2.664 0 0 1-.874-.485 2.64 2.64 0 0 1-.549-.64l.801-.562c.091.119.206.256.345.409.139.156.329.291.571.405.244.116.564.175.959.175.528 0 .964-.128 1.308-.384.344-.256.516-.656.516-1.202v-1.329h-.086a5.56 5.56 0 0 1-.315.443 1.792 1.792 0 0 1-.58.464c-.25.134-.588.201-1.014.201a2.73 2.73 0 0 1-1.423-.375 2.628 2.628 0 0 1-.993-1.091c-.241-.477-.362-1.057-.362-1.739 0-.67.118-1.254.354-1.751.235-.5.563-.887.984-1.159.42-.276.906-.414 1.457-.414.426 0 .764.071 1.014.213.253.14.447.299.58.478.136.176.242.321.315.434h.103v-1.039h.971v6.733c0 .562-.128 1.019-.383 1.372a2.18 2.18 0 0 1-1.023.779 3.851 3.851 0 0 1-1.423.252zm-.034-3.597c.403 0 .744-.092 1.022-.277.279-.184.49-.45.635-.797.145-.346.218-.761.218-1.244 0-.471-.071-.888-.213-1.248a1.88 1.88 0 0 0-.631-.848c-.279-.205-.622-.307-1.031-.307-.427 0-.782.108-1.066.324a1.966 1.966 0 0 0-.635.869 3.366 3.366 0 0 0-.208 1.21c0 .455.071.857.213 1.206.144.347.358.619.639.818.284.196.636.294 1.057.294zm7.448 1.142c-.63 0-1.174-.139-1.632-.417a2.808 2.808 0 0 1-1.052-1.176c-.245-.506-.367-1.094-.367-1.765 0-.67.122-1.261.367-1.772a2.888 2.888 0 0 1 1.031-1.202c.443-.29.96-.435 1.551-.435.341 0 .678.057 1.01.171.333.113.635.298.908.554.273.253.49.588.652 1.005.162.418.243.932.243 1.543v.426h-5.046v-.869h4.023c0-.369-.074-.699-.222-.989a1.67 1.67 0 0 0-.622-.686 1.746 1.746 0 0 0-.946-.251c-.4 0-.747.099-1.04.298a1.976 1.976 0 0 0-.669.767 2.254 2.254 0 0 0-.234 1.014v.58c0 .494.085.913.256 1.257.173.341.413.601.72.78a2.11 2.11 0 0 0 1.069.264c.265 0 .503-.037.716-.111a1.54 1.54 0 0 0 .559-.341c.156-.153.277-.344.362-.571l.971.273a2.158 2.158 0 0 1-.515.869 2.52 2.52 0 0 1-.895.58 3.326 3.326 0 0 1-1.198.204zm-30.23-66.863V387h-1.057v-8.727h1.057zm4.641 8.863c-.613 0-1.142-.145-1.585-.434a2.837 2.837 0 0 1-1.023-1.198c-.238-.508-.358-1.089-.358-1.743 0-.664.123-1.251.367-1.76.247-.511.591-.91 1.031-1.197.443-.29.96-.435 1.551-.435.461 0 .875.086 1.245.256.369.17.671.409.907.716s.382.665.439 1.074h-1.005a1.562 1.562 0 0 0-.512-.793c-.261-.233-.613-.349-1.057-.349-.392 0-.735.102-1.031.307a1.993 1.993 0 0 0-.686.856c-.162.367-.243.797-.243 1.291 0 .506.08.946.239 1.321.162.375.389.666.682.874.295.207.642.311 1.039.311.262 0 .499-.045.712-.136.213-.091.393-.222.541-.392.148-.171.253-.375.316-.614h1.005a2.329 2.329 0 0 1-1.304 1.777c-.363.179-.787.268-1.27.268zm6.703 0c-.59 0-1.109-.14-1.555-.422a2.863 2.863 0 0 1-1.04-1.18c-.247-.506-.37-1.097-.37-1.773 0-.681.123-1.277.37-1.785.25-.509.597-.904 1.04-1.185.446-.281.965-.422 1.555-.422.591 0 1.108.141 1.552.422.446.281.792.676 1.039 1.185.25.508.375 1.104.375 1.785 0 .676-.125 1.267-.375 1.773a2.82 2.82 0 0 1-1.039 1.18c-.444.282-.961.422-1.552.422zm0-.903c.449 0 .819-.115 1.108-.345.29-.23.505-.533.644-.908a3.48 3.48 0 0 0 .209-1.219c0-.437-.07-.845-.209-1.223a2.063 2.063 0 0 0-.644-.916c-.289-.233-.659-.349-1.108-.349-.448 0-.818.116-1.108.349a2.07 2.07 0 0 0-.643.916 3.518 3.518 0 0 0-.209 1.223c0 .438.07.844.209 1.219.139.375.354.678.643.908.29.23.66.345 1.108.345zm5.507-3.171V387h-1.005v-6.545h.971v1.022h.085a1.88 1.88 0 0 1 .699-.801c.313-.204.716-.307 1.21-.307.444 0 .831.091 1.164.273.332.179.591.452.775.818.185.364.277.824.277 1.381V387h-1.005v-4.091c0-.514-.134-.915-.401-1.202-.267-.289-.633-.434-1.099-.434-.321 0-.608.069-.861.209-.25.139-.448.342-.592.609-.145.267-.218.591-.218.971z"/><path fill="#85F" d="M81 204.5a.5.5 0 0 1 .5-.5h3a.5.5 0 0 1 .5.5v3a.5.5 0 0 1-.5.5h-3a.5.5 0 0 1-.5-.5v-3zm0 5a.5.5 0 0 1 .5-.5h3a.5.5 0 0 1 .5.5v3a.5.5 0 0 1-.5.5h-3a.5.5 0 0 1-.5-.5v-3zm5-5a.5.5 0 0 1 .5-.5h3a.5.5 0 0 1 .5.5v3a.5.5 0 0 1-.5.5h-3a.5.5 0 0 1-.5-.5v-3zm0 5a.5.5 0 0 1 .5-.5h3a.5.5 0 0 1 .5.5v3a.5.5 0 0 1-.5.5h-3a.5.5 0 0 1-.5-.5v-3zm15 111a.5.5 0 0 1 .5-.5h3a.5.5 0 0 1 .5.5v3a.5.5 0 0 1-.5.5h-3a.5.5 0 0 1-.5-.5v-3zm0 5a.5.5 0 0 1 .5-.5h3a.5.5 0 0 1 .5.5v3a.5.5 0 0 1-.5.5h-3a.5.5 0 0 1-.5-.5v-3zm5-5a.5.5 0 0 1 .5-.5h3a.5.5 0 0 1 .5.5v3a.5.5 0 0 1-.5.5h-3a.5.5 0 0 1-.5-.5v-3zm0 5a.5.5 0 0 1 .5-.5h3a.5.5 0 0 1 .5.5v3a.5.5 0 0 1-.5.5h-3a.5.5 0 0 1-.5-.5v-3zm-45 227a.5.5 0 0 1 .5-.5h3a.5.5 0 0 1 .5.5v3a.5.5 0 0 1-.5.5h-3a.5.5 0 0 1-.5-.5v-3zm0 5a.5.5 0 0 1 .5-.5h3a.5.5 0 0 1 .5.5v3a.5.5 0 0 1-.5.5h-3a.5.5 0 0 1-.5-.5v-3zm5-5a.5.5 0 0 1 .5-.5h3a.5.5 0 0 1 .5.5v3a.5.5 0 0 1-.5.5h-3a.5.5 0 0 1-.5-.5v-3zm0 5a.5.5 0 0 1 .5-.5h3a.5.5 0 0 1 .5.5v3a.5.5 0 0 1-.5.5h-3a.5.5 0 0 1-.5-.5v-3z"/><path fill="#999" d="M102 263v1h3v6h1v-6h3v-1h-7zm0 29v1h3v6h1v-6h3v-1h-7z"/><rect width="10" height="10" x="101" y="349" fill="#09F" rx="2"/><rect width="10" height="10" x="121" y="436" fill="#09F" rx="2"/><path fill="#85F" d="M126 382.085V378c1.833 1.5 5.203 5.357 3 8-2.5 3-5.87 1.694-7 0-1.666-2.5-1-4.5 3-8v4.085a1.5 1.5 0 1 0 1 0zm-.148 29V407c1.833 1.5 5.203 5.357 3 8-2.5 3-5.87 1.694-7 0-1.667-2.5-1-4.5 3-8v4.085a1.5 1.5 0 1 0 1 0z"/><rect width="230" height="30" x="15" y="75" fill="#F3F3F3" rx="8"/><path fill="#888" d="M37.959 94v-8.727h3.11c.68 0 1.242.123 1.688.37.446.248.78.586 1.002 1.015.221.426.332.906.332 1.44 0 .537-.112 1.02-.337 1.449a2.436 2.436 0 0 1-1.005 1.014c-.446.247-1.008.37-1.684.37h-2.139v-1.116h2.02c.429 0 .777-.073 1.044-.221.267-.15.463-.355.588-.614.125-.258.188-.552.188-.882 0-.33-.063-.622-.188-.878a1.345 1.345 0 0 0-.592-.6c-.267-.146-.62-.218-1.057-.218h-1.653V94h-1.317zm9.42.145c-.415 0-.79-.077-1.125-.23a1.895 1.895 0 0 1-.797-.678c-.194-.295-.29-.657-.29-1.086 0-.37.07-.674.213-.912.142-.239.334-.428.575-.567.242-.14.512-.244.81-.316a8.05 8.05 0 0 1 .912-.161l.954-.111c.245-.031.422-.081.533-.15.11-.067.166-.178.166-.332v-.03c0-.372-.105-.66-.315-.865-.208-.204-.517-.306-.93-.306-.428 0-.766.095-1.013.285a1.528 1.528 0 0 0-.507.626l-1.198-.272c.142-.398.35-.719.622-.963.276-.248.593-.426.95-.537.359-.114.735-.17 1.13-.17.261 0 .538.03.83.093.296.06.572.17.828.333.258.161.47.393.635.694.164.298.247.686.247 1.163V94h-1.245v-.895h-.05a1.814 1.814 0 0 1-.371.486 1.972 1.972 0 0 1-.636.396 2.463 2.463 0 0 1-.928.158zm.277-1.023c.352 0 .653-.07.903-.209a1.45 1.45 0 0 0 .575-.545c.134-.227.2-.47.2-.729v-.843a.665.665 0 0 1-.264.127 4.11 4.11 0 0 1-.439.098c-.164.026-.325.05-.481.073l-.392.05a3.153 3.153 0 0 0-.678.159c-.201.073-.363.18-.486.32-.119.135-.178.317-.178.545 0 .315.116.554.349.715.233.16.53.24.89.24zm7.394 3.469c-.52 0-.967-.068-1.342-.205a2.601 2.601 0 0 1-.912-.54 2.274 2.274 0 0 1-.529-.738l1.096-.452c.076.125.178.257.306.397.131.142.307.262.529.362.224.1.513.149.865.149.483 0 .882-.118 1.197-.354.316-.233.473-.605.473-1.116v-1.287h-.08a2.911 2.911 0 0 1-.333.464c-.142.17-.338.319-.588.444-.25.124-.575.187-.976.187-.517 0-.983-.12-1.398-.362-.412-.245-.738-.604-.98-1.078-.238-.478-.358-1.064-.358-1.76s.118-1.293.354-1.79c.239-.497.565-.878.98-1.142.415-.267.885-.4 1.41-.4.407 0 .735.067.985.204.25.133.444.29.584.469.142.179.251.336.328.473h.094v-1.062h1.248v6.69c0 .563-.13 1.025-.392 1.386a2.31 2.31 0 0 1-1.06.801c-.444.173-.944.26-1.5.26zm-.013-3.746c.367 0 .676-.085.93-.255.255-.174.448-.421.579-.742.133-.324.2-.712.2-1.163 0-.44-.065-.829-.196-1.164a1.73 1.73 0 0 0-.575-.784c-.253-.19-.566-.285-.938-.285-.383 0-.703.1-.959.298a1.8 1.8 0 0 0-.58.801 3.185 3.185 0 0 0-.19 1.134c0 .429.065.805.195 1.129.13.324.324.577.58.758.258.182.576.273.954.273zm7.496 1.287c-.645 0-1.2-.138-1.666-.413a2.805 2.805 0 0 1-1.074-1.172c-.25-.506-.375-1.098-.375-1.777 0-.67.125-1.261.375-1.773.253-.511.605-.91 1.057-1.197.454-.287.986-.43 1.593-.43.37 0 .728.06 1.074.183a2.6 2.6 0 0 1 .934.575c.275.261.493.6.652 1.018.159.415.238.92.238 1.513v.452h-5.203v-.955h3.955a1.88 1.88 0 0 0-.205-.89 1.547 1.547 0 0 0-.575-.618 1.608 1.608 0 0 0-.86-.226c-.359 0-.671.088-.938.264-.265.173-.47.4-.614.682a1.969 1.969 0 0 0-.213.908v.745c0 .438.077.81.23 1.117.156.307.373.541.652.703.278.159.604.239.976.239a2 2 0 0 0 .66-.103 1.37 1.37 0 0 0 .848-.831l1.206.218c-.096.355-.27.666-.52.933a2.52 2.52 0 0 1-.933.618 3.493 3.493 0 0 1-1.274.217zm9.127-5.08-1.155.205a1.368 1.368 0 0 0-.23-.422 1.138 1.138 0 0 0-.418-.328 1.513 1.513 0 0 0-.66-.128c-.361 0-.662.081-.904.243-.241.16-.362.365-.362.618 0 .219.081.395.243.529.162.133.423.242.784.328l1.04.238c.602.14 1.051.354 1.346.644.296.29.444.666.444 1.129 0 .392-.114.741-.341 1.048-.225.304-.539.543-.942.716-.4.174-.865.26-1.393.26-.733 0-1.331-.156-1.794-.469-.464-.315-.748-.762-.853-1.342l1.232-.188c.076.322.234.564.473.73.238.161.55.242.933.242.418 0 .751-.087 1.001-.26.25-.176.375-.39.375-.643a.669.669 0 0 0-.23-.516c-.15-.14-.382-.244-.694-.315l-1.108-.243c-.611-.14-1.063-.361-1.355-.665-.29-.304-.435-.689-.435-1.155 0-.386.108-.724.324-1.014a2.12 2.12 0 0 1 .895-.677c.38-.165.816-.248 1.308-.248.707 0 1.264.154 1.67.46.407.305.675.712.806 1.224zM187.696 94h-1.398l3.141-8.727h1.521L194.101 94h-1.398l-2.467-7.142h-.068L187.696 94zm.234-3.418h4.534v1.108h-4.534v-1.108zm12.187-1.53-1.155.205a1.364 1.364 0 0 0-.23-.422 1.139 1.139 0 0 0-.418-.328 1.51 1.51 0 0 0-.66-.128c-.361 0-.662.081-.904.243-.241.16-.362.365-.362.618 0 .219.081.395.243.529.162.133.423.242.784.328l1.04.238c.602.14 1.051.354 1.346.644.296.29.444.666.444 1.129 0 .392-.114.741-.341 1.048-.225.304-.539.543-.942.716-.401.174-.865.26-1.393.26-.733 0-1.331-.156-1.794-.469-.464-.315-.748-.762-.853-1.342l1.232-.188c.076.322.234.564.473.73.238.161.549.242.933.242.418 0 .751-.087 1.001-.26.25-.176.375-.39.375-.643a.667.667 0 0 0-.23-.516c-.15-.14-.382-.244-.694-.315l-1.108-.243c-.611-.14-1.063-.361-1.355-.665-.29-.304-.435-.689-.435-1.155 0-.386.108-.724.324-1.014a2.12 2.12 0 0 1 .895-.677 3.26 3.26 0 0 1 1.308-.248c.707 0 1.264.154 1.67.46.407.305.675.712.806 1.224zm6.433 0-1.154.205a1.367 1.367 0 0 0-.231-.422 1.135 1.135 0 0 0-.417-.328 1.512 1.512 0 0 0-.661-.128c-.36 0-.662.081-.903.243-.242.16-.362.365-.362.618 0 .219.081.395.243.529.162.133.423.242.784.328l1.039.238c.603.14 1.052.354 1.347.644.296.29.443.666.443 1.129 0 .392-.113.741-.341 1.048-.224.304-.538.543-.941.716-.401.174-.865.26-1.394.26-.733 0-1.331-.156-1.794-.469-.463-.315-.747-.762-.852-1.342l1.231-.188c.077.322.235.564.473.73.239.161.55.242.934.242.417 0 .751-.087 1.001-.26.25-.176.375-.39.375-.643a.67.67 0 0 0-.23-.516c-.151-.14-.382-.244-.695-.315l-1.108-.243c-.61-.14-1.062-.361-1.355-.665-.29-.304-.434-.689-.434-1.155 0-.386.108-.724.323-1.014.216-.29.515-.516.895-.677a3.269 3.269 0 0 1 1.309-.248c.707 0 1.264.154 1.67.46.406.305.675.712.805 1.224zm4.35 5.08c-.645 0-1.2-.138-1.666-.413a2.806 2.806 0 0 1-1.074-1.172c-.25-.506-.375-1.098-.375-1.777 0-.67.125-1.261.375-1.773.253-.511.605-.91 1.057-1.197.455-.287.986-.43 1.594-.43.369 0 .727.06 1.074.183.346.122.657.314.933.575.275.261.493.6.652 1.018.159.415.238.92.238 1.513v.452h-5.203v-.955h3.955a1.87 1.87 0 0 0-.205-.89 1.545 1.545 0 0 0-.575-.618 1.607 1.607 0 0 0-.861-.226c-.358 0-.67.088-.937.264a1.77 1.77 0 0 0-.614.682 1.969 1.969 0 0 0-.213.908v.745c0 .438.077.81.23 1.117.156.307.374.541.652.703.279.159.604.239.976.239.241 0 .462-.034.661-.103a1.373 1.373 0 0 0 .848-.831l1.205.218a2.177 2.177 0 0 1-.519.933 2.53 2.53 0 0 1-.934.618 3.492 3.492 0 0 1-1.274.217zm7.278-6.678v1.023h-3.576v-1.023h3.576zm-2.617-1.568h1.274v6.192c0 .247.037.433.111.558a.578.578 0 0 0 .286.252c.119.042.248.064.387.064.103 0 .192-.007.269-.022l.179-.034.23 1.053a2.505 2.505 0 0 1-.827.136 2.24 2.24 0 0 1-.937-.179 1.606 1.606 0 0 1-.703-.58c-.179-.26-.269-.589-.269-.984v-6.456zm8.825 3.167-1.154.204a1.367 1.367 0 0 0-.231-.422 1.135 1.135 0 0 0-.417-.328 1.512 1.512 0 0 0-.661-.128c-.36 0-.662.081-.903.243-.242.16-.362.365-.362.618 0 .219.081.395.243.529.162.133.423.242.784.328l1.039.238c.603.14 1.052.354 1.347.644.295.29.443.666.443 1.129 0 .392-.113.741-.341 1.048-.224.304-.538.543-.941.716-.401.174-.866.26-1.394.26-.733 0-1.331-.156-1.794-.469-.463-.315-.747-.762-.852-1.342l1.231-.188c.077.322.235.564.473.73.239.161.55.242.934.242.417 0 .751-.087 1.001-.26.25-.176.375-.39.375-.643a.67.67 0 0 0-.23-.516c-.151-.14-.382-.244-.695-.315l-1.108-.243c-.61-.14-1.062-.361-1.355-.665-.29-.304-.434-.689-.434-1.155 0-.386.107-.724.323-1.014.216-.29.515-.516.895-.677a3.269 3.269 0 0 1 1.309-.248c.707 0 1.264.154 1.67.46.406.305.675.712.805 1.224z"/><g filter="url(#d)"><rect width="75" height="26" x="92" y="77" fill="#fff" rx="6"/><path fill="#222" d="M110.959 94v-8.727h1.317v7.594h3.954V94h-5.271zm8.576.145c-.415 0-.79-.077-1.125-.23a1.897 1.897 0 0 1-.797-.678c-.193-.295-.29-.657-.29-1.086 0-.37.071-.674.213-.912a1.57 1.57 0 0 1 .576-.567 3 3 0 0 1 .809-.316c.298-.07.602-.124.912-.161l.955-.111c.244-.031.422-.081.532-.15.111-.067.167-.178.167-.332v-.03c0-.372-.106-.66-.316-.865-.207-.204-.517-.306-.929-.306-.429 0-.767.095-1.014.285a1.532 1.532 0 0 0-.507.626l-1.198-.272c.142-.398.35-.719.623-.963a2.51 2.51 0 0 1 .95-.537c.358-.114.734-.17 1.129-.17.262 0 .538.03.831.093.296.06.571.17.827.333.258.161.47.393.635.694.165.298.247.686.247 1.163V94h-1.244v-.895h-.052a1.817 1.817 0 0 1-.37.486 1.977 1.977 0 0 1-.635.396 2.464 2.464 0 0 1-.929.158zm.277-1.023c.352 0 .653-.07.903-.209a1.45 1.45 0 0 0 .776-1.274v-.843a.673.673 0 0 1-.264.127c-.128.037-.275.07-.439.098l-.482.073-.392.05a3.143 3.143 0 0 0-.677.159 1.16 1.16 0 0 0-.486.32c-.12.135-.179.317-.179.545 0 .315.116.554.349.715.233.16.53.24.891.24zm5.221 3.332a2.664 2.664 0 0 1-.869-.14l.307-1.044c.232.062.44.09.622.08a.743.743 0 0 0 .481-.204c.142-.127.267-.336.375-.626l.158-.435-2.395-6.63h1.364l1.657 5.08h.068l1.658-5.08h1.368l-2.697 7.419c-.125.34-.284.629-.478.865a1.85 1.85 0 0 1-.69.537 2.26 2.26 0 0 1-.929.178zm8.59-2.322c-.645 0-1.2-.138-1.666-.413a2.806 2.806 0 0 1-1.074-1.172c-.25-.506-.375-1.098-.375-1.777 0-.67.125-1.261.375-1.773.253-.511.605-.91 1.057-1.197.454-.287.985-.43 1.593-.43.37 0 .728.06 1.074.183.347.122.658.314.933.575.276.261.493.6.652 1.018.16.415.239.92.239 1.513v.452h-5.203v-.955h3.955c0-.335-.069-.632-.205-.89a1.545 1.545 0 0 0-.575-.618 1.612 1.612 0 0 0-.861-.226c-.358 0-.671.088-.938.264-.264.173-.468.4-.613.682a1.969 1.969 0 0 0-.213.908v.745c0 .438.076.81.23 1.117.156.307.373.541.652.703.278.159.603.239.976.239.241 0 .461-.034.66-.103a1.37 1.37 0 0 0 .848-.831l1.206.218c-.096.355-.27.666-.52.933-.247.264-.558.47-.933.618a3.492 3.492 0 0 1-1.274.217zm4.222-.132v-6.546h1.231v1.04h.069a1.58 1.58 0 0 1 .63-.83 1.805 1.805 0 0 1 1.031-.308 5.448 5.448 0 0 1 .542.03v1.22a2.285 2.285 0 0 0-.273-.048 2.613 2.613 0 0 0-.392-.03c-.301 0-.57.064-.806.192a1.426 1.426 0 0 0-.758 1.283V94h-1.274zm9.51-4.947-1.155.204a1.364 1.364 0 0 0-.23-.422 1.135 1.135 0 0 0-.417-.328 1.518 1.518 0 0 0-.661-.128c-.361 0-.662.081-.903.243-.242.16-.363.365-.363.618 0 .219.081.395.243.529.162.133.424.242.784.328l1.04.238c.602.14 1.051.354 1.347.644.295.29.443.666.443 1.129 0 .392-.114.741-.341 1.048-.224.304-.538.543-.942.716-.4.174-.865.26-1.393.26-.733 0-1.331-.156-1.794-.469-.463-.315-.747-.762-.852-1.342l1.231-.188c.077.322.234.564.473.73.239.161.55.242.933.242.418 0 .752-.087 1.002-.26.25-.176.375-.39.375-.643a.67.67 0 0 0-.23-.516c-.151-.14-.383-.244-.695-.315l-1.108-.243c-.611-.14-1.062-.361-1.355-.665-.29-.304-.435-.689-.435-1.155 0-.386.108-.724.324-1.014a2.12 2.12 0 0 1 .895-.677 3.267 3.267 0 0 1 1.308-.248c.708 0 1.264.154 1.671.46.406.305.674.712.805 1.224z"/></g><path fill="#D9D9D9" d="M15 119h230v1H15z"/><g clip-path="url(#e)"><rect width="608" height="720" x="515" y="154" fill="#fff" rx="8"/><rect width="252" height="158" x="831" y="228" fill="#BBBCBC" rx="8"/><rect width="212" height="33" x="555" y="253" fill="#BBBCBC" rx="8"/><rect width="252" height="33" x="831" y="592" fill="#BBBCBC" rx="8"/><rect width="108" height="119" x="555" y="554" fill="#BBBCBC" rx="8"/><rect width="108" height="57" x="555" y="677" fill="#BBBCBC" rx="8"/><rect width="100" height="180" x="667" y="554" fill="#BBBCBC" rx="8"/><rect width="152" height="6" x="555" y="298" fill="#BBBCBC" rx="3"/><rect width="152" height="6" x="831" y="637" fill="#BBBCBC" rx="3"/><rect width="130" height="6" x="555" y="312" fill="#BBBCBC" rx="3"/><rect width="48" height="16" x="475" y="418" fill="#BBBCBC" rx="8"/><rect width="48" height="16" x="795" y="418" fill="#BBBCBC" rx="8"/><rect width="48" height="16" x="635" y="418" fill="#BBBCBC" rx="8"/><rect width="48" height="16" x="955" y="418" fill="#BBBCBC" rx="8"/><rect width="48" height="16" x="1035" y="418" fill="#BBBCBC" rx="8"/><rect width="48" height="16" x="555" y="418" fill="#BBBCBC" rx="8"/><rect width="48" height="16" x="875" y="418" fill="#BBBCBC" rx="8"/><rect width="48" height="16" x="715" y="418" fill="#BBBCBC" rx="8"/><rect width="48" height="16" x="1115" y="418" fill="#BBBCBC" rx="8"/><rect width="130" height="6" x="831" y="651" fill="#BBBCBC" rx="3"/><rect width="16" height="16" x="555" y="167" fill="#BBBCBC" rx="8"/><rect width="32" height="6" x="588" y="172" fill="#BBBCBC" rx="3"/><rect width="32" height="6" x="632" y="172" fill="#BBBCBC" rx="3"/><rect width="32" height="6" x="676" y="172" fill="#BBBCBC" rx="3"/><rect width="32" height="6" x="720" y="172" fill="#BBBCBC" rx="3"/><rect width="69" height="24" x="555" y="334" fill="#BBBCBC" rx="8"/><rect width="69" height="24" x="831" y="673" fill="#BBBCBC" rx="8"/><rect width="171" height="24" x="734" y="498" fill="#BBBCBC" rx="8"/><rect width="48" height="16" x="1035" y="167" fill="#BBBCBC" rx="8"/></g><g filter="url(#f)"><rect width="206" height="50" x="613" y="750" fill="#fff" rx="16"/><path fill="#999" d="M726 774.997a8.005 8.005 0 0 1-3.881 6.861 7.995 7.995 0 0 1-7.879.203l-2.619.873a1.23 1.23 0 0 1-1.557-1.557l.873-2.619a8.002 8.002 0 0 1 8.724-11.584 8.005 8.005 0 0 1 5.528 4.317 7.994 7.994 0 0 1 .811 3.506zm-47.45-8.147a.865.865 0 0 0-.24-.601.803.803 0 0 0-.578-.249.803.803 0 0 0-.578.249.868.868 0 0 0-.239.601v6.21a5.323 5.323 0 0 0-1.091.498v-5.575a.87.87 0 0 0-.239-.601.803.803 0 0 0-.578-.249.803.803 0 0 0-.578.249.871.871 0 0 0-.24.601s.139 7.85 0 8.264c-.138.414-1.09 1.72-1.09.52v-1.712a2.592 2.592 0 0 0-.718-1.791.797.797 0 0 0-1.141.014.87.87 0 0 0-.015 1.187.855.855 0 0 1 .239.597v2.271h.004a4.62 4.62 0 0 0 1.273 3.028l1.262 1.311a4.275 4.275 0 0 0 3.082 1.328h1.465a5.348 5.348 0 0 0 3.854-1.66 5.782 5.782 0 0 0 1.596-4.007v-7.083a.868.868 0 0 0-.239-.601.807.807 0 0 0-.579-.249.806.806 0 0 0-.578.249.868.868 0 0 0-.239.601v4.17a5.403 5.403 0 0 0-1.09-.862v-5.575a.867.867 0 0 0-.24-.601.803.803 0 0 0-.578-.249.803.803 0 0 0-.578.249.87.87 0 0 0-.239.601v4.931a5.344 5.344 0 0 0-1.09-.114v-5.95z"/><rect width="29" height="30" x="623" y="760" fill="#F3F3F3" rx="8"/><path fill="#222" d="m639.188 777.548-4.023 3.84a1 1 0 0 1-1.645-.425l-3.636-11.633c-.367-1.174.757-2.266 1.919-1.866l11.643 4.002a1 1 0 0 1 .365 1.669l-3.536 3.376 4.738 4.442a.75.75 0 1 1-1.026 1.094l-4.799-4.499z"/><rect width="63" height="30" x="743" y="760" fill="#F3F3F3" rx="8"/><path fill="#424242" d="M755.151 770.273V779h-1.321v-7.406h-.052l-2.088 1.363v-1.261l2.178-1.423h1.283zm5.399 8.872c-.674-.003-1.249-.181-1.726-.533-.477-.352-.842-.865-1.095-1.538s-.38-1.485-.38-2.433c0-.946.127-1.755.38-2.425.255-.671.622-1.182 1.099-1.534.48-.352 1.054-.529 1.722-.529.667 0 1.24.178 1.717.533.477.352.842.864 1.095 1.534.256.668.384 1.475.384 2.421 0 .951-.127 1.764-.38 2.437-.252.671-.617 1.183-1.095 1.538-.477.353-1.051.529-1.721.529zm0-1.138c.591 0 1.052-.288 1.385-.865.335-.577.503-1.41.503-2.501 0-.725-.077-1.337-.231-1.837-.15-.503-.368-.884-.652-1.142a1.426 1.426 0 0 0-1.005-.392c-.588 0-1.05.29-1.385.869-.335.58-.504 1.414-.507 2.502 0 .727.075 1.342.226 1.845.153.5.37.879.652 1.138.281.255.619.383 1.014.383zm7.746 1.138c-.673-.003-1.249-.181-1.726-.533-.477-.352-.842-.865-1.095-1.538s-.379-1.485-.379-2.433c0-.946.126-1.755.379-2.425.255-.671.622-1.182 1.099-1.534.48-.352 1.054-.529 1.722-.529.667 0 1.24.178 1.717.533.477.352.842.864 1.095 1.534.256.668.384 1.475.384 2.421 0 .951-.127 1.764-.379 2.437-.253.671-.618 1.183-1.096 1.538-.477.353-1.051.529-1.721.529zm0-1.138c.591 0 1.052-.288 1.385-.865.335-.577.503-1.41.503-2.501 0-.725-.077-1.337-.231-1.837-.15-.503-.367-.884-.652-1.142a1.426 1.426 0 0 0-1.005-.392c-.588 0-1.05.29-1.385.869-.335.58-.504 1.414-.507 2.502 0 .727.075 1.342.226 1.845.153.5.37.879.652 1.138.281.255.619.383 1.014.383zm9.263-.643v-.461c0-.329.068-.63.204-.903.14-.276.341-.496.606-.661.267-.167.589-.251.967-.251.386 0 .71.082.972.247.261.165.458.385.592.661.136.275.204.578.204.907v.461c0 .329-.068.632-.204.907a1.647 1.647 0 0 1-.601.661c-.261.165-.582.247-.963.247-.384 0-.707-.082-.972-.247a1.647 1.647 0 0 1-.601-.661 2.02 2.02 0 0 1-.204-.907zm.993-.461v.461c0 .244.058.466.175.664.116.199.319.299.609.299.287 0 .487-.1.601-.299.113-.198.17-.42.17-.664v-.461c0-.244-.055-.466-.166-.664-.108-.199-.31-.299-.605-.299-.284 0-.486.1-.605.299-.119.198-.179.42-.179.664zm-5.382-4.534v-.46c0-.329.068-.632.204-.908.139-.275.341-.495.605-.66.267-.165.59-.247.968-.247.386 0 .71.082.971.247.262.165.459.385.593.66.133.276.2.579.2.908v.46c0 .33-.068.632-.205.908a1.607 1.607 0 0 1-.596.661c-.262.164-.583.247-.963.247-.387 0-.712-.083-.976-.247a1.659 1.659 0 0 1-.597-.661 2.024 2.024 0 0 1-.204-.908zm.997-.46v.46c0 .245.057.466.17.665.117.199.32.298.61.298.284 0 .483-.099.596-.298.117-.199.175-.42.175-.665v-.46c0-.244-.055-.466-.166-.665-.111-.199-.313-.298-.605-.298-.284 0-.486.099-.605.298a1.288 1.288 0 0 0-.175.665zm-.592 7.091 6-8.727h1.018l-6 8.727h-1.018z"/><path stroke="#A6A6A6" stroke-linecap="round" stroke-linejoin="round" stroke-width="1.5" d="m799 773.5-3 3-3-3"/></g></g><defs><filter id="b" width="60" height="42" x="9" y="12" color-interpolation-filters="sRGB" filterUnits="userSpaceOnUse"><feFlood flood-opacity="0" result="BackgroundImageFix"/><feColorMatrix in="SourceAlpha" result="hardAlpha" values="0 0 0 0 0 0 0 0 0 0 0 0 0 0 0 0 0 0 127 0"/><feOffset dy="3"/><feGaussianBlur stdDeviation="3"/><feComposite in2="hardAlpha" operator="out"/><feColorMatrix values="0 0 0 0 0.454902 0 0 0 0 0.454902 0 0 0 0 0.454902 0 0 0 0.2 0"/><feBlend in2="BackgroundImageFix" result="effect1_dropShadow_341_33530"/><feBlend in="SourceGraphic" in2="effect1_dropShadow_341_33530" result="shape"/></filter><filter id="d" width="81" height="32" x="89" y="77" color-interpolation-filters="sRGB" filterUnits="userSpaceOnUse"><feFlood flood-opacity="0" result="BackgroundImageFix"/><feColorMatrix in="SourceAlpha" result="hardAlpha" values="0 0 0 0 0 0 0 0 0 0 0 0 0 0 0 0 0 0 127 0"/><feOffset dy="3"/><feGaussianBlur stdDeviation="1.5"/><feComposite in2="hardAlpha" operator="out"/><feColorMatrix values="0 0 0 0 0.454902 0 0 0 0 0.454902 0 0 0 0 0.454902 0 0 0 0.2 0"/><feBlend in2="BackgroundImageFix" result="effect1_dropShadow_341_33530"/><feBlend in="SourceGraphic" in2="effect1_dropShadow_341_33530" result="shape"/></filter><filter id="f" width="238" height="98" x="597" y="726" color-interpolation-filters="sRGB" filterUnits="userSpaceOnUse"><feFlood flood-opacity="0" result="BackgroundImageFix"/><feColorMatrix in="SourceAlpha" result="hardAlpha" values="0 0 0 0 0 0 0 0 0 0 0 0 0 0 0 0 0 0 127 0"/><feOffset dy="-8"/><feGaussianBlur stdDeviation="8"/><feComposite in2="hardAlpha" operator="out"/><feColorMatrix values="0 0 0 0 0.129412 0 0 0 0 0.129412 0 0 0 0 0.129412 0 0 0 0.02 0"/><feBlend in2="BackgroundImageFix" result="effect1_dropShadow_341_33530"/><feColorMatrix in="SourceAlpha" result="hardAlpha" values="0 0 0 0 0 0 0 0 0 0 0 0 0 0 0 0 0 0 127 0"/><feOffset dy="8"/><feGaussianBlur stdDeviation="8"/><feComposite in2="hardAlpha" operator="out"/><feColorMatrix values="0 0 0 0 0.129412 0 0 0 0 0.129412 0 0 0 0 0.129412 0 0 0 0.08 0"/><feBlend in2="effect1_dropShadow_341_33530" result="effect2_dropShadow_341_33530"/><feBlend in="SourceGraphic" in2="effect2_dropShadow_341_33530" result="shape"/></filter><clipPath id="a"><path fill="#fff" d="M0 0h1378v820H0z"/></clipPath><clipPath id="e"><rect width="608" height="720" x="515" y="154" fill="#fff" rx="8"/></clipPath></defs></svg>